<?xml version="1.0" encoding="utf-8" standalone="no"?>
<!DOCTYPE svg PUBLIC "-//W3C//DTD SVG 1.1//EN"
  "http://www.w3.org/Graphics/SVG/1.1/DTD/svg11.dtd">
<!-- Created with matplotlib (https://matplotlib.org/) -->
<svg height="648pt" version="1.1" viewBox="0 0 648 648" width="648pt" xmlns="http://www.w3.org/2000/svg" xmlns:xlink="http://www.w3.org/1999/xlink">
 <defs>
  <style type="text/css">
*{stroke-linecap:butt;stroke-linejoin:round;}
  </style>
 </defs>
 <g id="figure_1">
  <g id="patch_1">
   <path d="M 0 648 
L 648 648 
L 648 0 
L 0 0 
z
" style="fill:#ffffff;"/>
  </g>
  <g id="axes_1">
   <g id="patch_2">
    <path d="M 81 576.72 
L 583.2 576.72 
L 583.2 77.76 
L 81 77.76 
z
" style="fill:#ffffff;"/>
   </g>
   <g id="matplotlib.axis_1">
    <g id="xtick_1">
     <g id="line2d_1">
      <defs>
       <path d="M 0 0 
L 0 3.5 
" id="mbb61dad2db" style="stroke:#000000;stroke-width:0.8;"/>
      </defs>
      <g>
       <use style="stroke:#000000;stroke-width:0.8;" x="127.540723" xlink:href="#mbb61dad2db" y="576.72"/>
      </g>
     </g>
     <g id="text_1">
      <!-- 210 -->
      <defs>
       <path d="M 19.1875 8.296875 
L 53.609375 8.296875 
L 53.609375 0 
L 7.328125 0 
L 7.328125 8.296875 
Q 12.9375 14.109375 22.625 23.890625 
Q 32.328125 33.6875 34.8125 36.53125 
Q 39.546875 41.84375 41.421875 45.53125 
Q 43.3125 49.21875 43.3125 52.78125 
Q 43.3125 58.59375 39.234375 62.25 
Q 35.15625 65.921875 28.609375 65.921875 
Q 23.96875 65.921875 18.8125 64.3125 
Q 13.671875 62.703125 7.8125 59.421875 
L 7.8125 69.390625 
Q 13.765625 71.78125 18.9375 73 
Q 24.125 74.21875 28.421875 74.21875 
Q 39.75 74.21875 46.484375 68.546875 
Q 53.21875 62.890625 53.21875 53.421875 
Q 53.21875 48.921875 51.53125 44.890625 
Q 49.859375 40.875 45.40625 35.40625 
Q 44.1875 33.984375 37.640625 27.21875 
Q 31.109375 20.453125 19.1875 8.296875 
z
" id="DejaVuSans-50"/>
       <path d="M 12.40625 8.296875 
L 28.515625 8.296875 
L 28.515625 63.921875 
L 10.984375 60.40625 
L 10.984375 69.390625 
L 28.421875 72.90625 
L 38.28125 72.90625 
L 38.28125 8.296875 
L 54.390625 8.296875 
L 54.390625 0 
L 12.40625 0 
z
" id="DejaVuSans-49"/>
       <path d="M 31.78125 66.40625 
Q 24.171875 66.40625 20.328125 58.90625 
Q 16.5 51.421875 16.5 36.375 
Q 16.5 21.390625 20.328125 13.890625 
Q 24.171875 6.390625 31.78125 6.390625 
Q 39.453125 6.390625 43.28125 13.890625 
Q 47.125 21.390625 47.125 36.375 
Q 47.125 51.421875 43.28125 58.90625 
Q 39.453125 66.40625 31.78125 66.40625 
z
M 31.78125 74.21875 
Q 44.046875 74.21875 50.515625 64.515625 
Q 56.984375 54.828125 56.984375 36.375 
Q 56.984375 17.96875 50.515625 8.265625 
Q 44.046875 -1.421875 31.78125 -1.421875 
Q 19.53125 -1.421875 13.0625 8.265625 
Q 6.59375 17.96875 6.59375 36.375 
Q 6.59375 54.828125 13.0625 64.515625 
Q 19.53125 74.21875 31.78125 74.21875 
z
" id="DejaVuSans-48"/>
      </defs>
      <g transform="translate(117.996973 591.318438)scale(0.1 -0.1)">
       <use xlink:href="#DejaVuSans-50"/>
       <use x="63.623047" xlink:href="#DejaVuSans-49"/>
       <use x="127.246094" xlink:href="#DejaVuSans-48"/>
      </g>
     </g>
    </g>
    <g id="xtick_2">
     <g id="line2d_2">
      <g>
       <use style="stroke:#000000;stroke-width:0.8;" x="209.594183" xlink:href="#mbb61dad2db" y="576.72"/>
      </g>
     </g>
     <g id="text_2">
      <!-- 220 -->
      <g transform="translate(200.050433 591.318438)scale(0.1 -0.1)">
       <use xlink:href="#DejaVuSans-50"/>
       <use x="63.623047" xlink:href="#DejaVuSans-50"/>
       <use x="127.246094" xlink:href="#DejaVuSans-48"/>
      </g>
     </g>
    </g>
    <g id="xtick_3">
     <g id="line2d_3">
      <g>
       <use style="stroke:#000000;stroke-width:0.8;" x="291.647644" xlink:href="#mbb61dad2db" y="576.72"/>
      </g>
     </g>
     <g id="text_3">
      <!-- 230 -->
      <defs>
       <path d="M 40.578125 39.3125 
Q 47.65625 37.796875 51.625 33 
Q 55.609375 28.21875 55.609375 21.1875 
Q 55.609375 10.40625 48.1875 4.484375 
Q 40.765625 -1.421875 27.09375 -1.421875 
Q 22.515625 -1.421875 17.65625 -0.515625 
Q 12.796875 0.390625 7.625 2.203125 
L 7.625 11.71875 
Q 11.71875 9.328125 16.59375 8.109375 
Q 21.484375 6.890625 26.8125 6.890625 
Q 36.078125 6.890625 40.9375 10.546875 
Q 45.796875 14.203125 45.796875 21.1875 
Q 45.796875 27.640625 41.28125 31.265625 
Q 36.765625 34.90625 28.71875 34.90625 
L 20.21875 34.90625 
L 20.21875 43.015625 
L 29.109375 43.015625 
Q 36.375 43.015625 40.234375 45.921875 
Q 44.09375 48.828125 44.09375 54.296875 
Q 44.09375 59.90625 40.109375 62.90625 
Q 36.140625 65.921875 28.71875 65.921875 
Q 24.65625 65.921875 20.015625 65.03125 
Q 15.375 64.15625 9.8125 62.3125 
L 9.8125 71.09375 
Q 15.4375 72.65625 20.34375 73.4375 
Q 25.25 74.21875 29.59375 74.21875 
Q 40.828125 74.21875 47.359375 69.109375 
Q 53.90625 64.015625 53.90625 55.328125 
Q 53.90625 49.265625 50.4375 45.09375 
Q 46.96875 40.921875 40.578125 39.3125 
z
" id="DejaVuSans-51"/>
      </defs>
      <g transform="translate(282.103894 591.318438)scale(0.1 -0.1)">
       <use xlink:href="#DejaVuSans-50"/>
       <use x="63.623047" xlink:href="#DejaVuSans-51"/>
       <use x="127.246094" xlink:href="#DejaVuSans-48"/>
      </g>
     </g>
    </g>
    <g id="xtick_4">
     <g id="line2d_4">
      <g>
       <use style="stroke:#000000;stroke-width:0.8;" x="373.701105" xlink:href="#mbb61dad2db" y="576.72"/>
      </g>
     </g>
     <g id="text_4">
      <!-- 240 -->
      <defs>
       <path d="M 37.796875 64.3125 
L 12.890625 25.390625 
L 37.796875 25.390625 
z
M 35.203125 72.90625 
L 47.609375 72.90625 
L 47.609375 25.390625 
L 58.015625 25.390625 
L 58.015625 17.1875 
L 47.609375 17.1875 
L 47.609375 0 
L 37.796875 0 
L 37.796875 17.1875 
L 4.890625 17.1875 
L 4.890625 26.703125 
z
" id="DejaVuSans-52"/>
      </defs>
      <g transform="translate(364.157355 591.318438)scale(0.1 -0.1)">
       <use xlink:href="#DejaVuSans-50"/>
       <use x="63.623047" xlink:href="#DejaVuSans-52"/>
       <use x="127.246094" xlink:href="#DejaVuSans-48"/>
      </g>
     </g>
    </g>
    <g id="xtick_5">
     <g id="line2d_5">
      <g>
       <use style="stroke:#000000;stroke-width:0.8;" x="455.754565" xlink:href="#mbb61dad2db" y="576.72"/>
      </g>
     </g>
     <g id="text_5">
      <!-- 250 -->
      <defs>
       <path d="M 10.796875 72.90625 
L 49.515625 72.90625 
L 49.515625 64.59375 
L 19.828125 64.59375 
L 19.828125 46.734375 
Q 21.96875 47.46875 24.109375 47.828125 
Q 26.265625 48.1875 28.421875 48.1875 
Q 40.625 48.1875 47.75 41.5 
Q 54.890625 34.8125 54.890625 23.390625 
Q 54.890625 11.625 47.5625 5.09375 
Q 40.234375 -1.421875 26.90625 -1.421875 
Q 22.3125 -1.421875 17.546875 -0.640625 
Q 12.796875 0.140625 7.71875 1.703125 
L 7.71875 11.625 
Q 12.109375 9.234375 16.796875 8.0625 
Q 21.484375 6.890625 26.703125 6.890625 
Q 35.15625 6.890625 40.078125 11.328125 
Q 45.015625 15.765625 45.015625 23.390625 
Q 45.015625 31 40.078125 35.4375 
Q 35.15625 39.890625 26.703125 39.890625 
Q 22.75 39.890625 18.8125 39.015625 
Q 14.890625 38.140625 10.796875 36.28125 
z
" id="DejaVuSans-53"/>
      </defs>
      <g transform="translate(446.210815 591.318438)scale(0.1 -0.1)">
       <use xlink:href="#DejaVuSans-50"/>
       <use x="63.623047" xlink:href="#DejaVuSans-53"/>
       <use x="127.246094" xlink:href="#DejaVuSans-48"/>
      </g>
     </g>
    </g>
    <g id="xtick_6">
     <g id="line2d_6">
      <g>
       <use style="stroke:#000000;stroke-width:0.8;" x="537.808026" xlink:href="#mbb61dad2db" y="576.72"/>
      </g>
     </g>
     <g id="text_6">
      <!-- 260 -->
      <defs>
       <path d="M 33.015625 40.375 
Q 26.375 40.375 22.484375 35.828125 
Q 18.609375 31.296875 18.609375 23.390625 
Q 18.609375 15.53125 22.484375 10.953125 
Q 26.375 6.390625 33.015625 6.390625 
Q 39.65625 6.390625 43.53125 10.953125 
Q 47.40625 15.53125 47.40625 23.390625 
Q 47.40625 31.296875 43.53125 35.828125 
Q 39.65625 40.375 33.015625 40.375 
z
M 52.59375 71.296875 
L 52.59375 62.3125 
Q 48.875 64.0625 45.09375 64.984375 
Q 41.3125 65.921875 37.59375 65.921875 
Q 27.828125 65.921875 22.671875 59.328125 
Q 17.53125 52.734375 16.796875 39.40625 
Q 19.671875 43.65625 24.015625 45.921875 
Q 28.375 48.1875 33.59375 48.1875 
Q 44.578125 48.1875 50.953125 41.515625 
Q 57.328125 34.859375 57.328125 23.390625 
Q 57.328125 12.15625 50.6875 5.359375 
Q 44.046875 -1.421875 33.015625 -1.421875 
Q 20.359375 -1.421875 13.671875 8.265625 
Q 6.984375 17.96875 6.984375 36.375 
Q 6.984375 53.65625 15.1875 63.9375 
Q 23.390625 74.21875 37.203125 74.21875 
Q 40.921875 74.21875 44.703125 73.484375 
Q 48.484375 72.75 52.59375 71.296875 
z
" id="DejaVuSans-54"/>
      </defs>
      <g transform="translate(528.264276 591.318438)scale(0.1 -0.1)">
       <use xlink:href="#DejaVuSans-50"/>
       <use x="63.623047" xlink:href="#DejaVuSans-54"/>
       <use x="127.246094" xlink:href="#DejaVuSans-48"/>
      </g>
     </g>
    </g>
    <g id="text_7">
     <!-- x position -->
     <defs>
      <path d="M 54.890625 54.6875 
L 35.109375 28.078125 
L 55.90625 0 
L 45.3125 0 
L 29.390625 21.484375 
L 13.484375 0 
L 2.875 0 
L 24.125 28.609375 
L 4.6875 54.6875 
L 15.28125 54.6875 
L 29.78125 35.203125 
L 44.28125 54.6875 
z
" id="DejaVuSans-120"/>
      <path id="DejaVuSans-32"/>
      <path d="M 18.109375 8.203125 
L 18.109375 -20.796875 
L 9.078125 -20.796875 
L 9.078125 54.6875 
L 18.109375 54.6875 
L 18.109375 46.390625 
Q 20.953125 51.265625 25.265625 53.625 
Q 29.59375 56 35.59375 56 
Q 45.5625 56 51.78125 48.09375 
Q 58.015625 40.1875 58.015625 27.296875 
Q 58.015625 14.40625 51.78125 6.484375 
Q 45.5625 -1.421875 35.59375 -1.421875 
Q 29.59375 -1.421875 25.265625 0.953125 
Q 20.953125 3.328125 18.109375 8.203125 
z
M 48.6875 27.296875 
Q 48.6875 37.203125 44.609375 42.84375 
Q 40.53125 48.484375 33.40625 48.484375 
Q 26.265625 48.484375 22.1875 42.84375 
Q 18.109375 37.203125 18.109375 27.296875 
Q 18.109375 17.390625 22.1875 11.75 
Q 26.265625 6.109375 33.40625 6.109375 
Q 40.53125 6.109375 44.609375 11.75 
Q 48.6875 17.390625 48.6875 27.296875 
z
" id="DejaVuSans-112"/>
      <path d="M 30.609375 48.390625 
Q 23.390625 48.390625 19.1875 42.75 
Q 14.984375 37.109375 14.984375 27.296875 
Q 14.984375 17.484375 19.15625 11.84375 
Q 23.34375 6.203125 30.609375 6.203125 
Q 37.796875 6.203125 41.984375 11.859375 
Q 46.1875 17.53125 46.1875 27.296875 
Q 46.1875 37.015625 41.984375 42.703125 
Q 37.796875 48.390625 30.609375 48.390625 
z
M 30.609375 56 
Q 42.328125 56 49.015625 48.375 
Q 55.71875 40.765625 55.71875 27.296875 
Q 55.71875 13.875 49.015625 6.21875 
Q 42.328125 -1.421875 30.609375 -1.421875 
Q 18.84375 -1.421875 12.171875 6.21875 
Q 5.515625 13.875 5.515625 27.296875 
Q 5.515625 40.765625 12.171875 48.375 
Q 18.84375 56 30.609375 56 
z
" id="DejaVuSans-111"/>
      <path d="M 44.28125 53.078125 
L 44.28125 44.578125 
Q 40.484375 46.53125 36.375 47.5 
Q 32.28125 48.484375 27.875 48.484375 
Q 21.1875 48.484375 17.84375 46.4375 
Q 14.5 44.390625 14.5 40.28125 
Q 14.5 37.15625 16.890625 35.375 
Q 19.28125 33.59375 26.515625 31.984375 
L 29.59375 31.296875 
Q 39.15625 29.25 43.1875 25.515625 
Q 47.21875 21.78125 47.21875 15.09375 
Q 47.21875 7.46875 41.1875 3.015625 
Q 35.15625 -1.421875 24.609375 -1.421875 
Q 20.21875 -1.421875 15.453125 -0.5625 
Q 10.6875 0.296875 5.421875 2 
L 5.421875 11.28125 
Q 10.40625 8.6875 15.234375 7.390625 
Q 20.0625 6.109375 24.8125 6.109375 
Q 31.15625 6.109375 34.5625 8.28125 
Q 37.984375 10.453125 37.984375 14.40625 
Q 37.984375 18.0625 35.515625 20.015625 
Q 33.0625 21.96875 24.703125 23.78125 
L 21.578125 24.515625 
Q 13.234375 26.265625 9.515625 29.90625 
Q 5.8125 33.546875 5.8125 39.890625 
Q 5.8125 47.609375 11.28125 51.796875 
Q 16.75 56 26.8125 56 
Q 31.78125 56 36.171875 55.265625 
Q 40.578125 54.546875 44.28125 53.078125 
z
" id="DejaVuSans-115"/>
      <path d="M 9.421875 54.6875 
L 18.40625 54.6875 
L 18.40625 0 
L 9.421875 0 
z
M 9.421875 75.984375 
L 18.40625 75.984375 
L 18.40625 64.59375 
L 9.421875 64.59375 
z
" id="DejaVuSans-105"/>
      <path d="M 18.3125 70.21875 
L 18.3125 54.6875 
L 36.8125 54.6875 
L 36.8125 47.703125 
L 18.3125 47.703125 
L 18.3125 18.015625 
Q 18.3125 11.328125 20.140625 9.421875 
Q 21.96875 7.515625 27.59375 7.515625 
L 36.8125 7.515625 
L 36.8125 0 
L 27.59375 0 
Q 17.1875 0 13.234375 3.875 
Q 9.28125 7.765625 9.28125 18.015625 
L 9.28125 47.703125 
L 2.6875 47.703125 
L 2.6875 54.6875 
L 9.28125 54.6875 
L 9.28125 70.21875 
z
" id="DejaVuSans-116"/>
      <path d="M 54.890625 33.015625 
L 54.890625 0 
L 45.90625 0 
L 45.90625 32.71875 
Q 45.90625 40.484375 42.875 44.328125 
Q 39.84375 48.1875 33.796875 48.1875 
Q 26.515625 48.1875 22.3125 43.546875 
Q 18.109375 38.921875 18.109375 30.90625 
L 18.109375 0 
L 9.078125 0 
L 9.078125 54.6875 
L 18.109375 54.6875 
L 18.109375 46.1875 
Q 21.34375 51.125 25.703125 53.5625 
Q 30.078125 56 35.796875 56 
Q 45.21875 56 50.046875 50.171875 
Q 54.890625 44.34375 54.890625 33.015625 
z
" id="DejaVuSans-110"/>
     </defs>
     <g transform="translate(307.746875 604.996562)scale(0.1 -0.1)">
      <use xlink:href="#DejaVuSans-120"/>
      <use x="59.179688" xlink:href="#DejaVuSans-32"/>
      <use x="90.966797" xlink:href="#DejaVuSans-112"/>
      <use x="154.443359" xlink:href="#DejaVuSans-111"/>
      <use x="215.625" xlink:href="#DejaVuSans-115"/>
      <use x="267.724609" xlink:href="#DejaVuSans-105"/>
      <use x="295.507812" xlink:href="#DejaVuSans-116"/>
      <use x="334.716797" xlink:href="#DejaVuSans-105"/>
      <use x="362.5" xlink:href="#DejaVuSans-111"/>
      <use x="423.681641" xlink:href="#DejaVuSans-110"/>
     </g>
    </g>
   </g>
   <g id="matplotlib.axis_2">
    <g id="ytick_1">
     <g id="line2d_7">
      <defs>
       <path d="M 0 0 
L -3.5 0 
" id="m3b8fe87409" style="stroke:#000000;stroke-width:0.8;"/>
      </defs>
      <g>
       <use style="stroke:#000000;stroke-width:0.8;" x="81" xlink:href="#m3b8fe87409" y="501.819684"/>
      </g>
     </g>
     <g id="text_8">
      <!-- 140 -->
      <g transform="translate(54.9125 505.618903)scale(0.1 -0.1)">
       <use xlink:href="#DejaVuSans-49"/>
       <use x="63.623047" xlink:href="#DejaVuSans-52"/>
       <use x="127.246094" xlink:href="#DejaVuSans-48"/>
      </g>
     </g>
    </g>
    <g id="ytick_2">
     <g id="line2d_8">
      <g>
       <use style="stroke:#000000;stroke-width:0.8;" x="81" xlink:href="#m3b8fe87409" y="399.426907"/>
      </g>
     </g>
     <g id="text_9">
      <!-- 150 -->
      <g transform="translate(54.9125 403.226126)scale(0.1 -0.1)">
       <use xlink:href="#DejaVuSans-49"/>
       <use x="63.623047" xlink:href="#DejaVuSans-53"/>
       <use x="127.246094" xlink:href="#DejaVuSans-48"/>
      </g>
     </g>
    </g>
    <g id="ytick_3">
     <g id="line2d_9">
      <g>
       <use style="stroke:#000000;stroke-width:0.8;" x="81" xlink:href="#m3b8fe87409" y="297.034131"/>
      </g>
     </g>
     <g id="text_10">
      <!-- 160 -->
      <g transform="translate(54.9125 300.83335)scale(0.1 -0.1)">
       <use xlink:href="#DejaVuSans-49"/>
       <use x="63.623047" xlink:href="#DejaVuSans-54"/>
       <use x="127.246094" xlink:href="#DejaVuSans-48"/>
      </g>
     </g>
    </g>
    <g id="ytick_4">
     <g id="line2d_10">
      <g>
       <use style="stroke:#000000;stroke-width:0.8;" x="81" xlink:href="#m3b8fe87409" y="194.641354"/>
      </g>
     </g>
     <g id="text_11">
      <!-- 170 -->
      <defs>
       <path d="M 8.203125 72.90625 
L 55.078125 72.90625 
L 55.078125 68.703125 
L 28.609375 0 
L 18.3125 0 
L 43.21875 64.59375 
L 8.203125 64.59375 
z
" id="DejaVuSans-55"/>
      </defs>
      <g transform="translate(54.9125 198.440573)scale(0.1 -0.1)">
       <use xlink:href="#DejaVuSans-49"/>
       <use x="63.623047" xlink:href="#DejaVuSans-55"/>
       <use x="127.246094" xlink:href="#DejaVuSans-48"/>
      </g>
     </g>
    </g>
    <g id="ytick_5">
     <g id="line2d_11">
      <g>
       <use style="stroke:#000000;stroke-width:0.8;" x="81" xlink:href="#m3b8fe87409" y="92.248578"/>
      </g>
     </g>
     <g id="text_12">
      <!-- 180 -->
      <defs>
       <path d="M 31.78125 34.625 
Q 24.75 34.625 20.71875 30.859375 
Q 16.703125 27.09375 16.703125 20.515625 
Q 16.703125 13.921875 20.71875 10.15625 
Q 24.75 6.390625 31.78125 6.390625 
Q 38.8125 6.390625 42.859375 10.171875 
Q 46.921875 13.96875 46.921875 20.515625 
Q 46.921875 27.09375 42.890625 30.859375 
Q 38.875 34.625 31.78125 34.625 
z
M 21.921875 38.8125 
Q 15.578125 40.375 12.03125 44.71875 
Q 8.5 49.078125 8.5 55.328125 
Q 8.5 64.0625 14.71875 69.140625 
Q 20.953125 74.21875 31.78125 74.21875 
Q 42.671875 74.21875 48.875 69.140625 
Q 55.078125 64.0625 55.078125 55.328125 
Q 55.078125 49.078125 51.53125 44.71875 
Q 48 40.375 41.703125 38.8125 
Q 48.828125 37.15625 52.796875 32.3125 
Q 56.78125 27.484375 56.78125 20.515625 
Q 56.78125 9.90625 50.3125 4.234375 
Q 43.84375 -1.421875 31.78125 -1.421875 
Q 19.734375 -1.421875 13.25 4.234375 
Q 6.78125 9.90625 6.78125 20.515625 
Q 6.78125 27.484375 10.78125 32.3125 
Q 14.796875 37.15625 21.921875 38.8125 
z
M 18.3125 54.390625 
Q 18.3125 48.734375 21.84375 45.5625 
Q 25.390625 42.390625 31.78125 42.390625 
Q 38.140625 42.390625 41.71875 45.5625 
Q 45.3125 48.734375 45.3125 54.390625 
Q 45.3125 60.0625 41.71875 63.234375 
Q 38.140625 66.40625 31.78125 66.40625 
Q 25.390625 66.40625 21.84375 63.234375 
Q 18.3125 60.0625 18.3125 54.390625 
z
" id="DejaVuSans-56"/>
      </defs>
      <g transform="translate(54.9125 96.047797)scale(0.1 -0.1)">
       <use xlink:href="#DejaVuSans-49"/>
       <use x="63.623047" xlink:href="#DejaVuSans-56"/>
       <use x="127.246094" xlink:href="#DejaVuSans-48"/>
      </g>
     </g>
    </g>
    <g id="text_13">
     <!-- y position -->
     <defs>
      <path d="M 32.171875 -5.078125 
Q 28.375 -14.84375 24.75 -17.8125 
Q 21.140625 -20.796875 15.09375 -20.796875 
L 7.90625 -20.796875 
L 7.90625 -13.28125 
L 13.1875 -13.28125 
Q 16.890625 -13.28125 18.9375 -11.515625 
Q 21 -9.765625 23.484375 -3.21875 
L 25.09375 0.875 
L 2.984375 54.6875 
L 12.5 54.6875 
L 29.59375 11.921875 
L 46.6875 54.6875 
L 56.203125 54.6875 
z
" id="DejaVuSans-121"/>
     </defs>
     <g transform="translate(48.832812 351.593125)rotate(-90)scale(0.1 -0.1)">
      <use xlink:href="#DejaVuSans-121"/>
      <use x="59.179688" xlink:href="#DejaVuSans-32"/>
      <use x="90.966797" xlink:href="#DejaVuSans-112"/>
      <use x="154.443359" xlink:href="#DejaVuSans-111"/>
      <use x="215.625" xlink:href="#DejaVuSans-115"/>
      <use x="267.724609" xlink:href="#DejaVuSans-105"/>
      <use x="295.507812" xlink:href="#DejaVuSans-116"/>
      <use x="334.716797" xlink:href="#DejaVuSans-105"/>
      <use x="362.5" xlink:href="#DejaVuSans-111"/>
      <use x="423.681641" xlink:href="#DejaVuSans-110"/>
     </g>
    </g>
   </g>
   <g id="line2d_12">
    <defs>
     <path d="M 0 3 
C 0.795609 3 1.55874 2.683901 2.12132 2.12132 
C 2.683901 1.55874 3 0.795609 3 0 
C 3 -0.795609 2.683901 -1.55874 2.12132 -2.12132 
C 1.55874 -2.683901 0.795609 -3 0 -3 
C -0.795609 -3 -1.55874 -2.683901 -2.12132 -2.12132 
C -2.683901 -1.55874 -3 -0.795609 -3 0 
C -3 0.795609 -2.683901 1.55874 -2.12132 2.12132 
C -1.55874 2.683901 -0.795609 3 0 3 
z
" id="m3149c3ebd2" style="stroke:#1f77b4;"/>
    </defs>
    <g clip-path="url(#pbc5745bf58)">
     <use style="fill:#1f77b4;stroke:#1f77b4;" x="315.361094" xlink:href="#m3149c3ebd2" y="370.654537"/>
     <use style="fill:#1f77b4;stroke:#1f77b4;" x="310.601993" xlink:href="#m3149c3ebd2" y="377.002889"/>
     <use style="fill:#1f77b4;stroke:#1f77b4;" x="296.406745" xlink:href="#m3149c3ebd2" y="396.047946"/>
     <use style="fill:#1f77b4;stroke:#1f77b4;" x="276.467754" xlink:href="#m3149c3ebd2" y="417.550429"/>
     <use style="fill:#1f77b4;stroke:#1f77b4;" x="266.375178" xlink:href="#m3149c3ebd2" y="426.970564"/>
     <use style="fill:#1f77b4;stroke:#1f77b4;" x="218.29185" xlink:href="#m3149c3ebd2" y="464.139142"/>
     <use style="fill:#1f77b4;stroke:#1f77b4;" x="257.759565" xlink:href="#m3149c3ebd2" y="446.220406"/>
     <use style="fill:#1f77b4;stroke:#1f77b4;" x="103.827273" xlink:href="#m3149c3ebd2" y="554.04"/>
     <use style="fill:#1f77b4;stroke:#1f77b4;" x="319.874034" xlink:href="#m3149c3ebd2" y="408.642257"/>
     <use style="fill:#1f77b4;stroke:#1f77b4;" x="336.12062" xlink:href="#m3149c3ebd2" y="338.29842"/>
     <use style="fill:#1f77b4;stroke:#1f77b4;" x="336.12062" xlink:href="#m3149c3ebd2" y="338.29842"/>
     <use style="fill:#1f77b4;stroke:#1f77b4;" x="326.766525" xlink:href="#m3149c3ebd2" y="341.779774"/>
     <use style="fill:#1f77b4;stroke:#1f77b4;" x="326.766525" xlink:href="#m3149c3ebd2" y="341.779774"/>
     <use style="fill:#1f77b4;stroke:#1f77b4;" x="296.734958" xlink:href="#m3149c3ebd2" y="346.694628"/>
     <use style="fill:#1f77b4;stroke:#1f77b4;" x="281.062748" xlink:href="#m3149c3ebd2" y="350.892731"/>
     <use style="fill:#1f77b4;stroke:#1f77b4;" x="274.908738" xlink:href="#m3149c3ebd2" y="353.862122"/>
     <use style="fill:#1f77b4;stroke:#1f77b4;" x="258.662153" xlink:href="#m3149c3ebd2" y="394.307269"/>
     <use style="fill:#1f77b4;stroke:#1f77b4;" x="258.662153" xlink:href="#m3149c3ebd2" y="394.307269"/>
     <use style="fill:#1f77b4;stroke:#1f77b4;" x="267.031606" xlink:href="#m3149c3ebd2" y="414.376253"/>
     <use style="fill:#1f77b4;stroke:#1f77b4;" x="347.690158" xlink:href="#m3149c3ebd2" y="355.705192"/>
     <use style="fill:#1f77b4;stroke:#1f77b4;" x="347.690158" xlink:href="#m3149c3ebd2" y="355.705192"/>
     <use style="fill:#1f77b4;stroke:#1f77b4;" x="264.487949" xlink:href="#m3149c3ebd2" y="429.837562"/>
     <use style="fill:#1f77b4;stroke:#1f77b4;" x="264.487949" xlink:href="#m3149c3ebd2" y="429.837562"/>
     <use style="fill:#1f77b4;stroke:#1f77b4;" x="260.221169" xlink:href="#m3149c3ebd2" y="427.17535"/>
     <use style="fill:#1f77b4;stroke:#1f77b4;" x="243.236102" xlink:href="#m3149c3ebd2" y="417.857607"/>
     <use style="fill:#1f77b4;stroke:#1f77b4;" x="245.943866" xlink:href="#m3149c3ebd2" y="407.106366"/>
     <use style="fill:#1f77b4;stroke:#1f77b4;" x="359.752016" xlink:href="#m3149c3ebd2" y="328.263928"/>
     <use style="fill:#1f77b4;stroke:#1f77b4;" x="354.254434" xlink:href="#m3149c3ebd2" y="335.533815"/>
     <use style="fill:#1f77b4;stroke:#1f77b4;" x="251.113234" xlink:href="#m3149c3ebd2" y="395.024018"/>
     <use style="fill:#1f77b4;stroke:#1f77b4;" x="348.510692" xlink:href="#m3149c3ebd2" y="325.806501"/>
     <use style="fill:#1f77b4;stroke:#1f77b4;" x="341.207934" xlink:href="#m3149c3ebd2" y="330.209391"/>
     <use style="fill:#1f77b4;stroke:#1f77b4;" x="334.23339" xlink:href="#m3149c3ebd2" y="334.714673"/>
     <use style="fill:#1f77b4;stroke:#1f77b4;" x="327.83322" xlink:href="#m3149c3ebd2" y="339.219955"/>
     <use style="fill:#1f77b4;stroke:#1f77b4;" x="321.679211" xlink:href="#m3149c3ebd2" y="344.032415"/>
     <use style="fill:#1f77b4;stroke:#1f77b4;" x="316.099575" xlink:href="#m3149c3ebd2" y="349.254447"/>
     <use style="fill:#1f77b4;stroke:#1f77b4;" x="316.099575" xlink:href="#m3149c3ebd2" y="349.254447"/>
     <use style="fill:#1f77b4;stroke:#1f77b4;" x="310.848154" xlink:href="#m3149c3ebd2" y="354.988442"/>
     <use style="fill:#1f77b4;stroke:#1f77b4;" x="301.494059" xlink:href="#m3149c3ebd2" y="367.377968"/>
     <use style="fill:#1f77b4;stroke:#1f77b4;" x="297.555493" xlink:href="#m3149c3ebd2" y="372.702393"/>
     <use style="fill:#1f77b4;stroke:#1f77b4;" x="281.390961" xlink:href="#m3149c3ebd2" y="386.218239"/>
     <use style="fill:#1f77b4;stroke:#1f77b4;" x="281.390961" xlink:href="#m3149c3ebd2" y="386.218239"/>
     <use style="fill:#1f77b4;stroke:#1f77b4;" x="267.031606" xlink:href="#m3149c3ebd2" y="389.18763"/>
     <use style="fill:#1f77b4;stroke:#1f77b4;" x="254.641533" xlink:href="#m3149c3ebd2" y="384.170384"/>
     <use style="fill:#1f77b4;stroke:#1f77b4;" x="222.722737" xlink:href="#m3149c3ebd2" y="367.275576"/>
     <use style="fill:#1f77b4;stroke:#1f77b4;" x="324.469028" xlink:href="#m3149c3ebd2" y="352.735801"/>
     <use style="fill:#1f77b4;stroke:#1f77b4;" x="324.469028" xlink:href="#m3149c3ebd2" y="352.735801"/>
     <use style="fill:#1f77b4;stroke:#1f77b4;" x="313.637971" xlink:href="#m3149c3ebd2" y="354.271693"/>
     <use style="fill:#1f77b4;stroke:#1f77b4;" x="302.806915" xlink:href="#m3149c3ebd2" y="355.807585"/>
     <use style="fill:#1f77b4;stroke:#1f77b4;" x="302.806915" xlink:href="#m3149c3ebd2" y="355.807585"/>
     <use style="fill:#1f77b4;stroke:#1f77b4;" x="292.139965" xlink:href="#m3149c3ebd2" y="356.933905"/>
     <use style="fill:#1f77b4;stroke:#1f77b4;" x="281.637122" xlink:href="#m3149c3ebd2" y="357.753047"/>
     <use style="fill:#1f77b4;stroke:#1f77b4;" x="250.210646" xlink:href="#m3149c3ebd2" y="355.909977"/>
     <use style="fill:#1f77b4;stroke:#1f77b4;" x="250.210646" xlink:href="#m3149c3ebd2" y="355.909977"/>
     <use style="fill:#1f77b4;stroke:#1f77b4;" x="229.122907" xlink:href="#m3149c3ebd2" y="351.302302"/>
     <use style="fill:#1f77b4;stroke:#1f77b4;" x="218.455957" xlink:href="#m3149c3ebd2" y="348.025734"/>
     <use style="fill:#1f77b4;stroke:#1f77b4;" x="174.639409" xlink:href="#m3149c3ebd2" y="327.956749"/>
     <use style="fill:#1f77b4;stroke:#1f77b4;" x="353.023632" xlink:href="#m3149c3ebd2" y="335.226637"/>
     <use style="fill:#1f77b4;stroke:#1f77b4;" x="337.269368" xlink:href="#m3149c3ebd2" y="345.158736"/>
     <use style="fill:#1f77b4;stroke:#1f77b4;" x="329.72045" xlink:href="#m3149c3ebd2" y="350.175982"/>
     <use style="fill:#1f77b4;stroke:#1f77b4;" x="329.72045" xlink:href="#m3149c3ebd2" y="350.175982"/>
     <use style="fill:#1f77b4;stroke:#1f77b4;" x="314.212346" xlink:href="#m3149c3ebd2" y="360.824831"/>
     <use style="fill:#1f77b4;stroke:#1f77b4;" x="314.212346" xlink:href="#m3149c3ebd2" y="360.824831"/>
     <use style="fill:#1f77b4;stroke:#1f77b4;" x="305.842893" xlink:href="#m3149c3ebd2" y="364.510971"/>
     <use style="fill:#1f77b4;stroke:#1f77b4;" x="305.842893" xlink:href="#m3149c3ebd2" y="364.510971"/>
     <use style="fill:#1f77b4;stroke:#1f77b4;" x="279.257571" xlink:href="#m3149c3ebd2" y="371.780858"/>
     <use style="fill:#1f77b4;stroke:#1f77b4;" x="279.257571" xlink:href="#m3149c3ebd2" y="371.780858"/>
     <use style="fill:#1f77b4;stroke:#1f77b4;" x="270.067584" xlink:href="#m3149c3ebd2" y="372.497607"/>
     <use style="fill:#1f77b4;stroke:#1f77b4;" x="250.949128" xlink:href="#m3149c3ebd2" y="372.395214"/>
     <use style="fill:#1f77b4;stroke:#1f77b4;" x="221.327828" xlink:href="#m3149c3ebd2" y="366.558826"/>
     <use style="fill:#1f77b4;stroke:#1f77b4;" x="211.153199" xlink:href="#m3149c3ebd2" y="363.077472"/>
     <use style="fill:#1f77b4;stroke:#1f77b4;" x="211.153199" xlink:href="#m3149c3ebd2" y="363.077472"/>
     <use style="fill:#1f77b4;stroke:#1f77b4;" x="200.814463" xlink:href="#m3149c3ebd2" y="359.084153"/>
     <use style="fill:#1f77b4;stroke:#1f77b4;" x="353.515953" xlink:href="#m3149c3ebd2" y="349.561625"/>
     <use style="fill:#1f77b4;stroke:#1f77b4;" x="338.25401" xlink:href="#m3149c3ebd2" y="326.523251"/>
     <use style="fill:#1f77b4;stroke:#1f77b4;" x="310.437886" xlink:href="#m3149c3ebd2" y="337.172099"/>
     <use style="fill:#1f77b4;stroke:#1f77b4;" x="300.017097" xlink:href="#m3149c3ebd2" y="339.117562"/>
     <use style="fill:#1f77b4;stroke:#1f77b4;" x="288.857826" xlink:href="#m3149c3ebd2" y="340.243883"/>
     <use style="fill:#1f77b4;stroke:#1f77b4;" x="277.124181" xlink:href="#m3149c3ebd2" y="341.063025"/>
     <use style="fill:#1f77b4;stroke:#1f77b4;" x="265.22643" xlink:href="#m3149c3ebd2" y="341.779774"/>
     <use style="fill:#1f77b4;stroke:#1f77b4;" x="265.22643" xlink:href="#m3149c3ebd2" y="341.779774"/>
     <use style="fill:#1f77b4;stroke:#1f77b4;" x="227.563891" xlink:href="#m3149c3ebd2" y="342.701309"/>
     <use style="fill:#1f77b4;stroke:#1f77b4;" x="227.563891" xlink:href="#m3149c3ebd2" y="342.701309"/>
     <use style="fill:#1f77b4;stroke:#1f77b4;" x="227.563891" xlink:href="#m3149c3ebd2" y="342.701309"/>
     <use style="fill:#1f77b4;stroke:#1f77b4;" x="186.537161" xlink:href="#m3149c3ebd2" y="340.551061"/>
     <use style="fill:#1f77b4;stroke:#1f77b4;" x="186.537161" xlink:href="#m3149c3ebd2" y="340.551061"/>
     <use style="fill:#1f77b4;stroke:#1f77b4;" x="172.013698" xlink:href="#m3149c3ebd2" y="339.322348"/>
     <use style="fill:#1f77b4;stroke:#1f77b4;" x="125.653493" xlink:href="#m3149c3ebd2" y="334.202709"/>
     <use style="fill:#1f77b4;stroke:#1f77b4;" x="125.653493" xlink:href="#m3149c3ebd2" y="334.202709"/>
     <use style="fill:#1f77b4;stroke:#1f77b4;" x="388.388674" xlink:href="#m3149c3ebd2" y="311.164334"/>
     <use style="fill:#1f77b4;stroke:#1f77b4;" x="332.017947" xlink:href="#m3149c3ebd2" y="331.438104"/>
     <use style="fill:#1f77b4;stroke:#1f77b4;" x="332.017947" xlink:href="#m3149c3ebd2" y="331.438104"/>
     <use style="fill:#1f77b4;stroke:#1f77b4;" x="332.017947" xlink:href="#m3149c3ebd2" y="331.438104"/>
     <use style="fill:#1f77b4;stroke:#1f77b4;" x="307.401908" xlink:href="#m3149c3ebd2" y="340.243883"/>
     <use style="fill:#1f77b4;stroke:#1f77b4;" x="297.801653" xlink:href="#m3149c3ebd2" y="342.598916"/>
     <use style="fill:#1f77b4;stroke:#1f77b4;" x="297.801653" xlink:href="#m3149c3ebd2" y="342.598916"/>
     <use style="fill:#1f77b4;stroke:#1f77b4;" x="277.042128" xlink:href="#m3149c3ebd2" y="345.6707"/>
     <use style="fill:#1f77b4;stroke:#1f77b4;" x="243.154049" xlink:href="#m3149c3ebd2" y="347.616163"/>
     <use style="fill:#1f77b4;stroke:#1f77b4;" x="231.174244" xlink:href="#m3149c3ebd2" y="347.718555"/>
     <use style="fill:#1f77b4;stroke:#1f77b4;" x="231.174244" xlink:href="#m3149c3ebd2" y="347.718555"/>
     <use style="fill:#1f77b4;stroke:#1f77b4;" x="179.726724" xlink:href="#m3149c3ebd2" y="345.568307"/>
     <use style="fill:#1f77b4;stroke:#1f77b4;" x="560.372727" xlink:href="#m3149c3ebd2" y="100.44"/>
     <use style="fill:#1f77b4;stroke:#1f77b4;" x="336.36678" xlink:href="#m3149c3ebd2" y="304.508804"/>
     <use style="fill:#1f77b4;stroke:#1f77b4;" x="336.36678" xlink:href="#m3149c3ebd2" y="304.508804"/>
     <use style="fill:#1f77b4;stroke:#1f77b4;" x="324.551082" xlink:href="#m3149c3ebd2" y="311.266727"/>
     <use style="fill:#1f77b4;stroke:#1f77b4;" x="321.597157" xlink:href="#m3149c3ebd2" y="313.109797"/>
     <use style="fill:#1f77b4;stroke:#1f77b4;" x="321.597157" xlink:href="#m3149c3ebd2" y="313.109797"/>
     <use style="fill:#1f77b4;stroke:#1f77b4;" x="315.361094" xlink:href="#m3149c3ebd2" y="317.410293"/>
     <use style="fill:#1f77b4;stroke:#1f77b4;" x="314.130292" xlink:href="#m3149c3ebd2" y="318.639007"/>
     <use style="fill:#1f77b4;stroke:#1f77b4;" x="311.750742" xlink:href="#m3149c3ebd2" y="321.301219"/>
     <use style="fill:#1f77b4;stroke:#1f77b4;" x="312.243063" xlink:href="#m3149c3ebd2" y="322.120361"/>
     <use style="fill:#1f77b4;stroke:#1f77b4;" x="317.330377" xlink:href="#m3149c3ebd2" y="325.192144"/>
     <use style="fill:#1f77b4;stroke:#1f77b4;" x="317.330377" xlink:href="#m3149c3ebd2" y="325.192144"/>
     <use style="fill:#1f77b4;stroke:#1f77b4;" x="318.643232" xlink:href="#m3149c3ebd2" y="327.342393"/>
     <use style="fill:#1f77b4;stroke:#1f77b4;" x="318.725286" xlink:href="#m3149c3ebd2" y="329.697427"/>
     <use style="fill:#1f77b4;stroke:#1f77b4;" x="318.068858" xlink:href="#m3149c3ebd2" y="331.950068"/>
     <use style="fill:#1f77b4;stroke:#1f77b4;" x="318.068858" xlink:href="#m3149c3ebd2" y="331.950068"/>
     <use style="fill:#1f77b4;stroke:#1f77b4;" x="315.443148" xlink:href="#m3149c3ebd2" y="336.352957"/>
     <use style="fill:#1f77b4;stroke:#1f77b4;" x="313.227704" xlink:href="#m3149c3ebd2" y="338.29842"/>
     <use style="fill:#1f77b4;stroke:#1f77b4;" x="313.227704" xlink:href="#m3149c3ebd2" y="338.29842"/>
     <use style="fill:#1f77b4;stroke:#1f77b4;" x="302.23254" xlink:href="#m3149c3ebd2" y="342.598916"/>
     <use style="fill:#1f77b4;stroke:#1f77b4;" x="302.23254" xlink:href="#m3149c3ebd2" y="342.598916"/>
     <use style="fill:#1f77b4;stroke:#1f77b4;" x="297.391386" xlink:href="#m3149c3ebd2" y="343.520451"/>
     <use style="fill:#1f77b4;stroke:#1f77b4;" x="286.724436" xlink:href="#m3149c3ebd2" y="344.851558"/>
     <use style="fill:#1f77b4;stroke:#1f77b4;" x="280.65248" xlink:href="#m3149c3ebd2" y="345.363521"/>
     <use style="fill:#1f77b4;stroke:#1f77b4;" x="267.031606" xlink:href="#m3149c3ebd2" y="345.773093"/>
     <use style="fill:#1f77b4;stroke:#1f77b4;" x="267.031606" xlink:href="#m3149c3ebd2" y="345.773093"/>
     <use style="fill:#1f77b4;stroke:#1f77b4;" x="251.031181" xlink:href="#m3149c3ebd2" y="345.568307"/>
     <use style="fill:#1f77b4;stroke:#1f77b4;" x="154.536311" xlink:href="#m3149c3ebd2" y="337.069707"/>
     <use style="fill:#1f77b4;stroke:#1f77b4;" x="358.603268" xlink:href="#m3149c3ebd2" y="323.144289"/>
     <use style="fill:#1f77b4;stroke:#1f77b4;" x="332.1" xlink:href="#m3149c3ebd2" y="331.642889"/>
     <use style="fill:#1f77b4;stroke:#1f77b4;" x="314.458506" xlink:href="#m3149c3ebd2" y="337.58167"/>
     <use style="fill:#1f77b4;stroke:#1f77b4;" x="314.458506" xlink:href="#m3149c3ebd2" y="337.58167"/>
     <use style="fill:#1f77b4;stroke:#1f77b4;" x="295.750317" xlink:href="#m3149c3ebd2" y="342.291738"/>
     <use style="fill:#1f77b4;stroke:#1f77b4;" x="295.750317" xlink:href="#m3149c3ebd2" y="342.291738"/>
     <use style="fill:#1f77b4;stroke:#1f77b4;" x="275.647219" xlink:href="#m3149c3ebd2" y="344.95395"/>
     <use style="fill:#1f77b4;stroke:#1f77b4;" x="275.647219" xlink:href="#m3149c3ebd2" y="344.95395"/>
     <use style="fill:#1f77b4;stroke:#1f77b4;" x="243.482263" xlink:href="#m3149c3ebd2" y="346.387449"/>
     <use style="fill:#1f77b4;stroke:#1f77b4;" x="243.482263" xlink:href="#m3149c3ebd2" y="346.387449"/>
     <use style="fill:#1f77b4;stroke:#1f77b4;" x="171.849592" xlink:href="#m3149c3ebd2" y="341.677381"/>
     <use style="fill:#1f77b4;stroke:#1f77b4;" x="145.428377" xlink:href="#m3149c3ebd2" y="338.29842"/>
     <use style="fill:#1f77b4;stroke:#1f77b4;" x="145.428377" xlink:href="#m3149c3ebd2" y="338.29842"/>
     <use style="fill:#1f77b4;stroke:#1f77b4;" x="131.643396" xlink:href="#m3149c3ebd2" y="336.352957"/>
     <use style="fill:#1f77b4;stroke:#1f77b4;" x="380.429488" xlink:href="#m3149c3ebd2" y="317.410293"/>
     <use style="fill:#1f77b4;stroke:#1f77b4;" x="355.485236" xlink:href="#m3149c3ebd2" y="328.161535"/>
     <use style="fill:#1f77b4;stroke:#1f77b4;" x="355.485236" xlink:href="#m3149c3ebd2" y="328.161535"/>
     <use style="fill:#1f77b4;stroke:#1f77b4;" x="347.443997" xlink:href="#m3149c3ebd2" y="331.642889"/>
     <use style="fill:#1f77b4;stroke:#1f77b4;" x="339.730972" xlink:href="#m3149c3ebd2" y="335.226637"/>
     <use style="fill:#1f77b4;stroke:#1f77b4;" x="339.730972" xlink:href="#m3149c3ebd2" y="335.226637"/>
     <use style="fill:#1f77b4;stroke:#1f77b4;" x="332.264107" xlink:href="#m3149c3ebd2" y="338.912777"/>
     <use style="fill:#1f77b4;stroke:#1f77b4;" x="308.960924" xlink:href="#m3149c3ebd2" y="350.995124"/>
     <use style="fill:#1f77b4;stroke:#1f77b4;" x="308.960924" xlink:href="#m3149c3ebd2" y="350.995124"/>
     <use style="fill:#1f77b4;stroke:#1f77b4;" x="300.017097" xlink:href="#m3149c3ebd2" y="354.066907"/>
     <use style="fill:#1f77b4;stroke:#1f77b4;" x="270.724012" xlink:href="#m3149c3ebd2" y="359.69851"/>
     <use style="fill:#1f77b4;stroke:#1f77b4;" x="270.724012" xlink:href="#m3149c3ebd2" y="359.69851"/>
     <use style="fill:#1f77b4;stroke:#1f77b4;" x="238.805215" xlink:href="#m3149c3ebd2" y="362.053544"/>
     <use style="fill:#1f77b4;stroke:#1f77b4;" x="376.080655" xlink:href="#m3149c3ebd2" y="318.639007"/>
     <use style="fill:#1f77b4;stroke:#1f77b4;" x="355.239076" xlink:href="#m3149c3ebd2" y="325.704108"/>
     <use style="fill:#1f77b4;stroke:#1f77b4;" x="348.428639" xlink:href="#m3149c3ebd2" y="328.571106"/>
     <use style="fill:#1f77b4;stroke:#1f77b4;" x="334.151337" xlink:href="#m3149c3ebd2" y="334.714673"/>
     <use style="fill:#1f77b4;stroke:#1f77b4;" x="326.520365" xlink:href="#m3149c3ebd2" y="337.786456"/>
     <use style="fill:#1f77b4;stroke:#1f77b4;" x="326.520365" xlink:href="#m3149c3ebd2" y="337.786456"/>
     <use style="fill:#1f77b4;stroke:#1f77b4;" x="310.437886" xlink:href="#m3149c3ebd2" y="343.315666"/>
     <use style="fill:#1f77b4;stroke:#1f77b4;" x="302.068433" xlink:href="#m3149c3ebd2" y="345.6707"/>
     <use style="fill:#1f77b4;stroke:#1f77b4;" x="302.068433" xlink:href="#m3149c3ebd2" y="345.6707"/>
     <use style="fill:#1f77b4;stroke:#1f77b4;" x="293.45282" xlink:href="#m3149c3ebd2" y="347.616163"/>
     <use style="fill:#1f77b4;stroke:#1f77b4;" x="293.45282" xlink:href="#m3149c3ebd2" y="347.616163"/>
     <use style="fill:#1f77b4;stroke:#1f77b4;" x="257.759565" xlink:href="#m3149c3ebd2" y="352.428623"/>
     <use style="fill:#1f77b4;stroke:#1f77b4;" x="239.051376" xlink:href="#m3149c3ebd2" y="353.145372"/>
     <use style="fill:#1f77b4;stroke:#1f77b4;" x="239.051376" xlink:href="#m3149c3ebd2" y="353.145372"/>
     <use style="fill:#1f77b4;stroke:#1f77b4;" x="353.515953" xlink:href="#m3149c3ebd2" y="315.567223"/>
     <use style="fill:#1f77b4;stroke:#1f77b4;" x="353.515953" xlink:href="#m3149c3ebd2" y="315.567223"/>
     <use style="fill:#1f77b4;stroke:#1f77b4;" x="339.320705" xlink:href="#m3149c3ebd2" y="323.144289"/>
     <use style="fill:#1f77b4;stroke:#1f77b4;" x="332.1" xlink:href="#m3149c3ebd2" y="327.751964"/>
     <use style="fill:#1f77b4;stroke:#1f77b4;" x="316.838056" xlink:href="#m3149c3ebd2" y="336.660135"/>
     <use style="fill:#1f77b4;stroke:#1f77b4;" x="316.838056" xlink:href="#m3149c3ebd2" y="336.660135"/>
     <use style="fill:#1f77b4;stroke:#1f77b4;" x="299.770937" xlink:href="#m3149c3ebd2" y="343.520451"/>
     <use style="fill:#1f77b4;stroke:#1f77b4;" x="243.071995" xlink:href="#m3149c3ebd2" y="352.940587"/>
     <use style="fill:#1f77b4;stroke:#1f77b4;" x="190.475727" xlink:href="#m3149c3ebd2" y="351.507088"/>
     <use style="fill:#1f77b4;stroke:#1f77b4;" x="357.290412" xlink:href="#m3149c3ebd2" y="314.440903"/>
     <use style="fill:#1f77b4;stroke:#1f77b4;" x="351.710777" xlink:href="#m3149c3ebd2" y="319.662935"/>
     <use style="fill:#1f77b4;stroke:#1f77b4;" x="333.576962" xlink:href="#m3149c3ebd2" y="336.967314"/>
     <use style="fill:#1f77b4;stroke:#1f77b4;" x="333.576962" xlink:href="#m3149c3ebd2" y="336.967314"/>
     <use style="fill:#1f77b4;stroke:#1f77b4;" x="318.725286" xlink:href="#m3149c3ebd2" y="345.465914"/>
     <use style="fill:#1f77b4;stroke:#1f77b4;" x="310.7661" xlink:href="#m3149c3ebd2" y="348.742483"/>
     <use style="fill:#1f77b4;stroke:#1f77b4;" x="285.493634" xlink:href="#m3149c3ebd2" y="355.500406"/>
     <use style="fill:#1f77b4;stroke:#1f77b4;" x="285.493634" xlink:href="#m3149c3ebd2" y="355.500406"/>
     <use style="fill:#1f77b4;stroke:#1f77b4;" x="276.631861" xlink:href="#m3149c3ebd2" y="356.831512"/>
     <use style="fill:#1f77b4;stroke:#1f77b4;" x="267.523927" xlink:href="#m3149c3ebd2" y="357.445869"/>
     <use style="fill:#1f77b4;stroke:#1f77b4;" x="267.523927" xlink:href="#m3149c3ebd2" y="357.445869"/>
     <use style="fill:#1f77b4;stroke:#1f77b4;" x="371.813875" xlink:href="#m3149c3ebd2" y="309.321264"/>
     <use style="fill:#1f77b4;stroke:#1f77b4;" x="352.203098" xlink:href="#m3149c3ebd2" y="319.150971"/>
     <use style="fill:#1f77b4;stroke:#1f77b4;" x="346.213195" xlink:href="#m3149c3ebd2" y="323.246682"/>
     <use style="fill:#1f77b4;stroke:#1f77b4;" x="326.356258" xlink:href="#m3149c3ebd2" y="336.045779"/>
     <use style="fill:#1f77b4;stroke:#1f77b4;" x="326.356258" xlink:href="#m3149c3ebd2" y="336.045779"/>
     <use style="fill:#1f77b4;stroke:#1f77b4;" x="310.437886" xlink:href="#m3149c3ebd2" y="341.882167"/>
     <use style="fill:#1f77b4;stroke:#1f77b4;" x="302.068433" xlink:href="#m3149c3ebd2" y="344.237201"/>
     <use style="fill:#1f77b4;stroke:#1f77b4;" x="266.046964" xlink:href="#m3149c3ebd2" y="350.585553"/>
     <use style="fill:#1f77b4;stroke:#1f77b4;" x="236.589772" xlink:href="#m3149c3ebd2" y="352.32623"/>
     <use style="fill:#1f77b4;stroke:#1f77b4;" x="226.251036" xlink:href="#m3149c3ebd2" y="352.428623"/>
     <use style="fill:#1f77b4;stroke:#1f77b4;" x="372.798516" xlink:href="#m3149c3ebd2" y="304.406411"/>
     <use style="fill:#1f77b4;stroke:#1f77b4;" x="353.762114" xlink:href="#m3149c3ebd2" y="316.386366"/>
     <use style="fill:#1f77b4;stroke:#1f77b4;" x="347.854264" xlink:href="#m3149c3ebd2" y="321.301219"/>
     <use style="fill:#1f77b4;stroke:#1f77b4;" x="347.854264" xlink:href="#m3149c3ebd2" y="321.301219"/>
     <use style="fill:#1f77b4;stroke:#1f77b4;" x="342.110522" xlink:href="#m3149c3ebd2" y="326.728036"/>
     <use style="fill:#1f77b4;stroke:#1f77b4;" x="335.464192" xlink:href="#m3149c3ebd2" y="331.847675"/>
     <use style="fill:#1f77b4;stroke:#1f77b4;" x="320.612516" xlink:href="#m3149c3ebd2" y="340.755847"/>
     <use style="fill:#1f77b4;stroke:#1f77b4;" x="312.65333" xlink:href="#m3149c3ebd2" y="344.441986"/>
     <use style="fill:#1f77b4;stroke:#1f77b4;" x="312.65333" xlink:href="#m3149c3ebd2" y="344.441986"/>
     <use style="fill:#1f77b4;stroke:#1f77b4;" x="200.240089" xlink:href="#m3149c3ebd2" y="356.933905"/>
     <use style="fill:#1f77b4;stroke:#1f77b4;" x="349.085066" xlink:href="#m3149c3ebd2" y="334.305102"/>
     <use style="fill:#1f77b4;stroke:#1f77b4;" x="328.243487" xlink:href="#m3149c3ebd2" y="349.459233"/>
     <use style="fill:#1f77b4;stroke:#1f77b4;" x="313.063597" xlink:href="#m3149c3ebd2" y="356.114763"/>
     <use style="fill:#1f77b4;stroke:#1f77b4;" x="305.022358" xlink:href="#m3149c3ebd2" y="358.57219"/>
     <use style="fill:#1f77b4;stroke:#1f77b4;" x="296.734958" xlink:href="#m3149c3ebd2" y="360.517652"/>
     <use style="fill:#1f77b4;stroke:#1f77b4;" x="279.421678" xlink:href="#m3149c3ebd2" y="363.077472"/>
     <use style="fill:#1f77b4;stroke:#1f77b4;" x="279.421678" xlink:href="#m3149c3ebd2" y="363.077472"/>
     <use style="fill:#1f77b4;stroke:#1f77b4;" x="270.477851" xlink:href="#m3149c3ebd2" y="363.794221"/>
     <use style="fill:#1f77b4;stroke:#1f77b4;" x="232.405045" xlink:href="#m3149c3ebd2" y="362.25833"/>
     <use style="fill:#1f77b4;stroke:#1f77b4;" x="369.434325" xlink:href="#m3149c3ebd2" y="304.611196"/>
     <use style="fill:#1f77b4;stroke:#1f77b4;" x="362.541834" xlink:href="#m3149c3ebd2" y="307.68298"/>
     <use style="fill:#1f77b4;stroke:#1f77b4;" x="322.827959" xlink:href="#m3149c3ebd2" y="334.714673"/>
     <use style="fill:#1f77b4;stroke:#1f77b4;" x="304.447984" xlink:href="#m3149c3ebd2" y="358.674582"/>
     <use style="fill:#1f77b4;stroke:#1f77b4;" x="304.447984" xlink:href="#m3149c3ebd2" y="358.674582"/>
     <use style="fill:#1f77b4;stroke:#1f77b4;" x="301.98638" xlink:href="#m3149c3ebd2" y="362.770293"/>
     <use style="fill:#1f77b4;stroke:#1f77b4;" x="301.98638" xlink:href="#m3149c3ebd2" y="362.770293"/>
     <use style="fill:#1f77b4;stroke:#1f77b4;" x="287.298811" xlink:href="#m3149c3ebd2" y="372.702393"/>
     <use style="fill:#1f77b4;stroke:#1f77b4;" x="287.298811" xlink:href="#m3149c3ebd2" y="372.702393"/>
     <use style="fill:#1f77b4;stroke:#1f77b4;" x="281.144801" xlink:href="#m3149c3ebd2" y="367.685147"/>
     <use style="fill:#1f77b4;stroke:#1f77b4;" x="278.27293" xlink:href="#m3149c3ebd2" y="365.94447"/>
     <use style="fill:#1f77b4;stroke:#1f77b4;" x="278.27293" xlink:href="#m3149c3ebd2" y="365.94447"/>
     <use style="fill:#1f77b4;stroke:#1f77b4;" x="267.35982" xlink:href="#m3149c3ebd2" y="361.54158"/>
     <use style="fill:#1f77b4;stroke:#1f77b4;" x="267.35982" xlink:href="#m3149c3ebd2" y="361.54158"/>
     <use style="fill:#1f77b4;stroke:#1f77b4;" x="258.169832" xlink:href="#m3149c3ebd2" y="359.084153"/>
     <use style="fill:#1f77b4;stroke:#1f77b4;" x="258.169832" xlink:href="#m3149c3ebd2" y="359.084153"/>
     <use style="fill:#1f77b4;stroke:#1f77b4;" x="235.194863" xlink:href="#m3149c3ebd2" y="354.988442"/>
     <use style="fill:#1f77b4;stroke:#1f77b4;" x="205.24535" xlink:href="#m3149c3ebd2" y="351.711874"/>
     <use style="fill:#1f77b4;stroke:#1f77b4;" x="205.24535" xlink:href="#m3149c3ebd2" y="351.711874"/>
     <use style="fill:#1f77b4;stroke:#1f77b4;" x="205.24535" xlink:href="#m3149c3ebd2" y="351.711874"/>
    </g>
   </g>
   <g id="patch_3">
    <path d="M 81 576.72 
L 81 77.76 
" style="fill:none;stroke:#000000;stroke-linecap:square;stroke-linejoin:miter;stroke-width:0.8;"/>
   </g>
   <g id="patch_4">
    <path d="M 583.2 576.72 
L 583.2 77.76 
" style="fill:none;stroke:#000000;stroke-linecap:square;stroke-linejoin:miter;stroke-width:0.8;"/>
   </g>
   <g id="patch_5">
    <path d="M 81 576.72 
L 583.2 576.72 
" style="fill:none;stroke:#000000;stroke-linecap:square;stroke-linejoin:miter;stroke-width:0.8;"/>
   </g>
   <g id="patch_6">
    <path d="M 81 77.76 
L 583.2 77.76 
" style="fill:none;stroke:#000000;stroke-linecap:square;stroke-linejoin:miter;stroke-width:0.8;"/>
   </g>
   <g id="text_14">
    <!-- Position plot -->
    <defs>
     <path d="M 19.671875 64.796875 
L 19.671875 37.40625 
L 32.078125 37.40625 
Q 38.96875 37.40625 42.71875 40.96875 
Q 46.484375 44.53125 46.484375 51.125 
Q 46.484375 57.671875 42.71875 61.234375 
Q 38.96875 64.796875 32.078125 64.796875 
z
M 9.8125 72.90625 
L 32.078125 72.90625 
Q 44.34375 72.90625 50.609375 67.359375 
Q 56.890625 61.8125 56.890625 51.125 
Q 56.890625 40.328125 50.609375 34.8125 
Q 44.34375 29.296875 32.078125 29.296875 
L 19.671875 29.296875 
L 19.671875 0 
L 9.8125 0 
z
" id="DejaVuSans-80"/>
     <path d="M 9.421875 75.984375 
L 18.40625 75.984375 
L 18.40625 0 
L 9.421875 0 
z
" id="DejaVuSans-108"/>
    </defs>
    <g transform="translate(295.122187 71.76)scale(0.12 -0.12)">
     <use xlink:href="#DejaVuSans-80"/>
     <use x="60.255859" xlink:href="#DejaVuSans-111"/>
     <use x="121.4375" xlink:href="#DejaVuSans-115"/>
     <use x="173.537109" xlink:href="#DejaVuSans-105"/>
     <use x="201.320312" xlink:href="#DejaVuSans-116"/>
     <use x="240.529297" xlink:href="#DejaVuSans-105"/>
     <use x="268.3125" xlink:href="#DejaVuSans-111"/>
     <use x="329.494141" xlink:href="#DejaVuSans-110"/>
     <use x="392.873047" xlink:href="#DejaVuSans-32"/>
     <use x="424.660156" xlink:href="#DejaVuSans-112"/>
     <use x="488.136719" xlink:href="#DejaVuSans-108"/>
     <use x="515.919922" xlink:href="#DejaVuSans-111"/>
     <use x="577.101562" xlink:href="#DejaVuSans-116"/>
    </g>
   </g>
   <g id="legend_1">
    <g id="patch_7">
     <path d="M 466.65 65.016125 
L 569.9625 65.016125 
Q 571.9625 65.016125 571.9625 63.016125 
L 571.9625 49.338 
Q 571.9625 47.338 569.9625 47.338 
L 466.65 47.338 
Q 464.65 47.338 464.65 49.338 
L 464.65 63.016125 
Q 464.65 65.016125 466.65 65.016125 
z
" style="fill:#4c4c4c;opacity:0.5;stroke:#4c4c4c;stroke-linejoin:miter;"/>
    </g>
    <g id="patch_8">
     <path d="M 464.65 63.016125 
L 567.9625 63.016125 
Q 569.9625 63.016125 569.9625 61.016125 
L 569.9625 47.338 
Q 569.9625 45.338 567.9625 45.338 
L 464.65 45.338 
Q 462.65 45.338 462.65 47.338 
L 462.65 61.016125 
Q 462.65 63.016125 464.65 63.016125 
z
" style="fill:#ffffff;stroke:#cccccc;stroke-linejoin:miter;"/>
    </g>
    <g id="line2d_13"/>
    <g id="line2d_14">
     <g>
      <use style="fill:#1f77b4;stroke:#1f77b4;" x="476.65" xlink:href="#m3149c3ebd2" y="53.436438"/>
     </g>
    </g>
    <g id="text_15">
     <!-- Target neuron -->
     <defs>
      <path d="M -0.296875 72.90625 
L 61.375 72.90625 
L 61.375 64.59375 
L 35.5 64.59375 
L 35.5 0 
L 25.59375 0 
L 25.59375 64.59375 
L -0.296875 64.59375 
z
" id="DejaVuSans-84"/>
      <path d="M 34.28125 27.484375 
Q 23.390625 27.484375 19.1875 25 
Q 14.984375 22.515625 14.984375 16.5 
Q 14.984375 11.71875 18.140625 8.90625 
Q 21.296875 6.109375 26.703125 6.109375 
Q 34.1875 6.109375 38.703125 11.40625 
Q 43.21875 16.703125 43.21875 25.484375 
L 43.21875 27.484375 
z
M 52.203125 31.203125 
L 52.203125 0 
L 43.21875 0 
L 43.21875 8.296875 
Q 40.140625 3.328125 35.546875 0.953125 
Q 30.953125 -1.421875 24.3125 -1.421875 
Q 15.921875 -1.421875 10.953125 3.296875 
Q 6 8.015625 6 15.921875 
Q 6 25.140625 12.171875 29.828125 
Q 18.359375 34.515625 30.609375 34.515625 
L 43.21875 34.515625 
L 43.21875 35.40625 
Q 43.21875 41.609375 39.140625 45 
Q 35.0625 48.390625 27.6875 48.390625 
Q 23 48.390625 18.546875 47.265625 
Q 14.109375 46.140625 10.015625 43.890625 
L 10.015625 52.203125 
Q 14.9375 54.109375 19.578125 55.046875 
Q 24.21875 56 28.609375 56 
Q 40.484375 56 46.34375 49.84375 
Q 52.203125 43.703125 52.203125 31.203125 
z
" id="DejaVuSans-97"/>
      <path d="M 41.109375 46.296875 
Q 39.59375 47.171875 37.8125 47.578125 
Q 36.03125 48 33.890625 48 
Q 26.265625 48 22.1875 43.046875 
Q 18.109375 38.09375 18.109375 28.8125 
L 18.109375 0 
L 9.078125 0 
L 9.078125 54.6875 
L 18.109375 54.6875 
L 18.109375 46.1875 
Q 20.953125 51.171875 25.484375 53.578125 
Q 30.03125 56 36.53125 56 
Q 37.453125 56 38.578125 55.875 
Q 39.703125 55.765625 41.0625 55.515625 
z
" id="DejaVuSans-114"/>
      <path d="M 45.40625 27.984375 
Q 45.40625 37.75 41.375 43.109375 
Q 37.359375 48.484375 30.078125 48.484375 
Q 22.859375 48.484375 18.828125 43.109375 
Q 14.796875 37.75 14.796875 27.984375 
Q 14.796875 18.265625 18.828125 12.890625 
Q 22.859375 7.515625 30.078125 7.515625 
Q 37.359375 7.515625 41.375 12.890625 
Q 45.40625 18.265625 45.40625 27.984375 
z
M 54.390625 6.78125 
Q 54.390625 -7.171875 48.1875 -13.984375 
Q 42 -20.796875 29.203125 -20.796875 
Q 24.46875 -20.796875 20.265625 -20.09375 
Q 16.0625 -19.390625 12.109375 -17.921875 
L 12.109375 -9.1875 
Q 16.0625 -11.328125 19.921875 -12.34375 
Q 23.78125 -13.375 27.78125 -13.375 
Q 36.625 -13.375 41.015625 -8.765625 
Q 45.40625 -4.15625 45.40625 5.171875 
L 45.40625 9.625 
Q 42.625 4.78125 38.28125 2.390625 
Q 33.9375 0 27.875 0 
Q 17.828125 0 11.671875 7.65625 
Q 5.515625 15.328125 5.515625 27.984375 
Q 5.515625 40.671875 11.671875 48.328125 
Q 17.828125 56 27.875 56 
Q 33.9375 56 38.28125 53.609375 
Q 42.625 51.21875 45.40625 46.390625 
L 45.40625 54.6875 
L 54.390625 54.6875 
z
" id="DejaVuSans-103"/>
      <path d="M 56.203125 29.59375 
L 56.203125 25.203125 
L 14.890625 25.203125 
Q 15.484375 15.921875 20.484375 11.0625 
Q 25.484375 6.203125 34.421875 6.203125 
Q 39.59375 6.203125 44.453125 7.46875 
Q 49.3125 8.734375 54.109375 11.28125 
L 54.109375 2.78125 
Q 49.265625 0.734375 44.1875 -0.34375 
Q 39.109375 -1.421875 33.890625 -1.421875 
Q 20.796875 -1.421875 13.15625 6.1875 
Q 5.515625 13.8125 5.515625 26.8125 
Q 5.515625 40.234375 12.765625 48.109375 
Q 20.015625 56 32.328125 56 
Q 43.359375 56 49.78125 48.890625 
Q 56.203125 41.796875 56.203125 29.59375 
z
M 47.21875 32.234375 
Q 47.125 39.59375 43.09375 43.984375 
Q 39.0625 48.390625 32.421875 48.390625 
Q 24.90625 48.390625 20.390625 44.140625 
Q 15.875 39.890625 15.1875 32.171875 
z
" id="DejaVuSans-101"/>
      <path d="M 8.5 21.578125 
L 8.5 54.6875 
L 17.484375 54.6875 
L 17.484375 21.921875 
Q 17.484375 14.15625 20.5 10.265625 
Q 23.53125 6.390625 29.59375 6.390625 
Q 36.859375 6.390625 41.078125 11.03125 
Q 45.3125 15.671875 45.3125 23.6875 
L 45.3125 54.6875 
L 54.296875 54.6875 
L 54.296875 0 
L 45.3125 0 
L 45.3125 8.40625 
Q 42.046875 3.421875 37.71875 1 
Q 33.40625 -1.421875 27.6875 -1.421875 
Q 18.265625 -1.421875 13.375 4.4375 
Q 8.5 10.296875 8.5 21.578125 
z
M 31.109375 56 
z
" id="DejaVuSans-117"/>
     </defs>
     <g transform="translate(494.65 56.936438)scale(0.1 -0.1)">
      <use xlink:href="#DejaVuSans-84"/>
      <use x="60.833984" xlink:href="#DejaVuSans-97"/>
      <use x="122.113281" xlink:href="#DejaVuSans-114"/>
      <use x="163.210938" xlink:href="#DejaVuSans-103"/>
      <use x="226.6875" xlink:href="#DejaVuSans-101"/>
      <use x="288.210938" xlink:href="#DejaVuSans-116"/>
      <use x="327.419922" xlink:href="#DejaVuSans-32"/>
      <use x="359.207031" xlink:href="#DejaVuSans-110"/>
      <use x="422.585938" xlink:href="#DejaVuSans-101"/>
      <use x="484.109375" xlink:href="#DejaVuSans-117"/>
      <use x="547.488281" xlink:href="#DejaVuSans-114"/>
      <use x="588.570312" xlink:href="#DejaVuSans-111"/>
      <use x="649.751953" xlink:href="#DejaVuSans-110"/>
     </g>
    </g>
   </g>
  </g>
 </g>
 <defs>
  <clipPath id="pbc5745bf58">
   <rect height="498.96" width="502.2" x="81" y="77.76"/>
  </clipPath>
 </defs>
</svg>
