<?xml version="1.0" encoding="utf-8" standalone="no"?>
<!DOCTYPE svg PUBLIC "-//W3C//DTD SVG 1.1//EN"
  "http://www.w3.org/Graphics/SVG/1.1/DTD/svg11.dtd">
<!-- Created with matplotlib (https://matplotlib.org/) -->
<svg height="648pt" version="1.1" viewBox="0 0 648 648" width="648pt" xmlns="http://www.w3.org/2000/svg" xmlns:xlink="http://www.w3.org/1999/xlink">
 <defs>
  <style type="text/css">
*{stroke-linecap:butt;stroke-linejoin:round;}
  </style>
 </defs>
 <g id="figure_1">
  <g id="patch_1">
   <path d="M 0 648 
L 648 648 
L 648 0 
L 0 0 
z
" style="fill:#ffffff;"/>
  </g>
  <g id="axes_1">
   <g id="patch_2">
    <path d="M 81 576.72 
L 583.2 576.72 
L 583.2 77.76 
L 81 77.76 
z
" style="fill:#ffffff;"/>
   </g>
   <g id="patch_3">
    <path clip-path="url(#pc28a72e956)" d="M 103.827273 576.72 
L 105.653455 576.72 
L 105.653455 176.322776 
L 103.827273 176.322776 
z
" style="fill:#1f77b4;"/>
   </g>
   <g id="patch_4">
    <path clip-path="url(#pc28a72e956)" d="M 105.653455 576.72 
L 107.479636 576.72 
L 107.479636 101.52 
L 105.653455 101.52 
z
" style="fill:#1f77b4;"/>
   </g>
   <g id="patch_5">
    <path clip-path="url(#pc28a72e956)" d="M 107.479636 576.72 
L 109.305818 576.72 
L 109.305818 381.543218 
L 107.479636 381.543218 
z
" style="fill:#1f77b4;"/>
   </g>
   <g id="patch_6">
    <path clip-path="url(#pc28a72e956)" d="M 109.305818 576.72 
L 111.132 576.72 
L 111.132 489.908139 
L 109.305818 489.908139 
z
" style="fill:#1f77b4;"/>
   </g>
   <g id="patch_7">
    <path clip-path="url(#pc28a72e956)" d="M 111.132 576.72 
L 112.958182 576.72 
L 112.958182 504.565552 
L 111.132 504.565552 
z
" style="fill:#1f77b4;"/>
   </g>
   <g id="patch_8">
    <path clip-path="url(#pc28a72e956)" d="M 112.958182 576.72 
L 114.784364 576.72 
L 114.784364 516.058297 
L 112.958182 516.058297 
z
" style="fill:#1f77b4;"/>
   </g>
   <g id="patch_9">
    <path clip-path="url(#pc28a72e956)" d="M 114.784364 576.72 
L 116.610545 576.72 
L 116.610545 524.119874 
L 114.784364 524.119874 
z
" style="fill:#1f77b4;"/>
   </g>
   <g id="patch_10">
    <path clip-path="url(#pc28a72e956)" d="M 116.610545 576.72 
L 118.436727 576.72 
L 118.436727 519.489464 
L 116.610545 519.489464 
z
" style="fill:#1f77b4;"/>
   </g>
   <g id="patch_11">
    <path clip-path="url(#pc28a72e956)" d="M 118.436727 576.72 
L 120.262909 576.72 
L 120.262909 516.491356 
L 118.436727 516.491356 
z
" style="fill:#1f77b4;"/>
   </g>
   <g id="patch_12">
    <path clip-path="url(#pc28a72e956)" d="M 120.262909 576.72 
L 122.089091 576.72 
L 122.089091 519.589401 
L 120.262909 519.589401 
z
" style="fill:#1f77b4;"/>
   </g>
   <g id="patch_13">
    <path clip-path="url(#pc28a72e956)" d="M 122.089091 576.72 
L 123.915273 576.72 
L 123.915273 522.787382 
L 122.089091 522.787382 
z
" style="fill:#1f77b4;"/>
   </g>
   <g id="patch_14">
    <path clip-path="url(#pc28a72e956)" d="M 123.915273 576.72 
L 125.741455 576.72 
L 125.741455 538.910536 
L 123.915273 538.910536 
z
" style="fill:#1f77b4;"/>
   </g>
   <g id="patch_15">
    <path clip-path="url(#pc28a72e956)" d="M 125.741455 576.72 
L 127.567636 576.72 
L 127.567636 537.211609 
L 125.741455 537.211609 
z
" style="fill:#1f77b4;"/>
   </g>
   <g id="patch_16">
    <path clip-path="url(#pc28a72e956)" d="M 127.567636 576.72 
L 129.393818 576.72 
L 129.393818 535.279495 
L 127.567636 535.279495 
z
" style="fill:#1f77b4;"/>
   </g>
   <g id="patch_17">
    <path clip-path="url(#pc28a72e956)" d="M 129.393818 576.72 
L 131.22 576.72 
L 131.22 539.843281 
L 129.393818 539.843281 
z
" style="fill:#1f77b4;"/>
   </g>
   <g id="patch_18">
    <path clip-path="url(#pc28a72e956)" d="M 131.22 576.72 
L 133.046182 576.72 
L 133.046182 532.914322 
L 131.22 532.914322 
z
" style="fill:#1f77b4;"/>
   </g>
   <g id="patch_19">
    <path clip-path="url(#pc28a72e956)" d="M 133.046182 576.72 
L 134.872364 576.72 
L 134.872364 518.789905 
L 133.046182 518.789905 
z
" style="fill:#1f77b4;"/>
   </g>
   <g id="patch_20">
    <path clip-path="url(#pc28a72e956)" d="M 134.872364 576.72 
L 136.698545 576.72 
L 136.698545 501.434196 
L 134.872364 501.434196 
z
" style="fill:#1f77b4;"/>
   </g>
   <g id="patch_21">
    <path clip-path="url(#pc28a72e956)" d="M 136.698545 576.72 
L 138.524727 576.72 
L 138.524727 528.217287 
L 136.698545 528.217287 
z
" style="fill:#1f77b4;"/>
   </g>
   <g id="patch_22">
    <path clip-path="url(#pc28a72e956)" d="M 138.524727 576.72 
L 140.350909 576.72 
L 140.350909 526.884795 
L 138.524727 526.884795 
z
" style="fill:#1f77b4;"/>
   </g>
   <g id="patch_23">
    <path clip-path="url(#pc28a72e956)" d="M 140.350909 576.72 
L 142.177091 576.72 
L 142.177091 528.950158 
L 140.350909 528.950158 
z
" style="fill:#1f77b4;"/>
   </g>
   <g id="patch_24">
    <path clip-path="url(#pc28a72e956)" d="M 142.177091 576.72 
L 144.003273 576.72 
L 144.003273 528.916845 
L 142.177091 528.916845 
z
" style="fill:#1f77b4;"/>
   </g>
   <g id="patch_25">
    <path clip-path="url(#pc28a72e956)" d="M 144.003273 576.72 
L 145.829455 576.72 
L 145.829455 508.796215 
L 144.003273 508.796215 
z
" style="fill:#1f77b4;"/>
   </g>
   <g id="patch_26">
    <path clip-path="url(#pc28a72e956)" d="M 145.829455 576.72 
L 147.655636 576.72 
L 147.655636 534.013628 
L 145.829455 534.013628 
z
" style="fill:#1f77b4;"/>
   </g>
   <g id="patch_27">
    <path clip-path="url(#pc28a72e956)" d="M 147.655636 576.72 
L 149.481818 576.72 
L 149.481818 548.537792 
L 147.655636 548.537792 
z
" style="fill:#1f77b4;"/>
   </g>
   <g id="patch_28">
    <path clip-path="url(#pc28a72e956)" d="M 149.481818 576.72 
L 151.308 576.72 
L 151.308 552.102208 
L 149.481818 552.102208 
z
" style="fill:#1f77b4;"/>
   </g>
   <g id="patch_29">
    <path clip-path="url(#pc28a72e956)" d="M 151.308 576.72 
L 153.134182 576.72 
L 153.134182 541.508896 
L 151.308 541.508896 
z
" style="fill:#1f77b4;"/>
   </g>
   <g id="patch_30">
    <path clip-path="url(#pc28a72e956)" d="M 153.134182 576.72 
L 154.960364 576.72 
L 154.960364 529.283281 
L 153.134182 529.283281 
z
" style="fill:#1f77b4;"/>
   </g>
   <g id="patch_31">
    <path clip-path="url(#pc28a72e956)" d="M 154.960364 576.72 
L 156.786545 576.72 
L 156.786545 538.67735 
L 154.960364 538.67735 
z
" style="fill:#1f77b4;"/>
   </g>
   <g id="patch_32">
    <path clip-path="url(#pc28a72e956)" d="M 156.786545 576.72 
L 158.612727 576.72 
L 158.612727 538.344227 
L 156.786545 538.344227 
z
" style="fill:#1f77b4;"/>
   </g>
   <g id="patch_33">
    <path clip-path="url(#pc28a72e956)" d="M 158.612727 576.72 
L 160.438909 576.72 
L 160.438909 537.144984 
L 158.612727 537.144984 
z
" style="fill:#1f77b4;"/>
   </g>
   <g id="patch_34">
    <path clip-path="url(#pc28a72e956)" d="M 160.438909 576.72 
L 162.265091 576.72 
L 162.265091 541.775394 
L 160.438909 541.775394 
z
" style="fill:#1f77b4;"/>
   </g>
   <g id="patch_35">
    <path clip-path="url(#pc28a72e956)" d="M 162.265091 576.72 
L 164.091273 576.72 
L 164.091273 542.474953 
L 162.265091 542.474953 
z
" style="fill:#1f77b4;"/>
   </g>
   <g id="patch_36">
    <path clip-path="url(#pc28a72e956)" d="M 164.091273 576.72 
L 165.917455 576.72 
L 165.917455 551.502587 
L 164.091273 551.502587 
z
" style="fill:#1f77b4;"/>
   </g>
   <g id="patch_37">
    <path clip-path="url(#pc28a72e956)" d="M 165.917455 576.72 
L 167.743636 576.72 
L 167.743636 554.667256 
L 165.917455 554.667256 
z
" style="fill:#1f77b4;"/>
   </g>
   <g id="patch_38">
    <path clip-path="url(#pc28a72e956)" d="M 167.743636 576.72 
L 169.569818 576.72 
L 169.569818 555.033691 
L 167.743636 555.033691 
z
" style="fill:#1f77b4;"/>
   </g>
   <g id="patch_39">
    <path clip-path="url(#pc28a72e956)" d="M 169.569818 576.72 
L 171.396 576.72 
L 171.396 558.698044 
L 169.569818 558.698044 
z
" style="fill:#1f77b4;"/>
   </g>
   <g id="patch_40">
    <path clip-path="url(#pc28a72e956)" d="M 171.396 576.72 
L 173.222182 576.72 
L 173.222182 552.302082 
L 171.396 552.302082 
z
" style="fill:#1f77b4;"/>
   </g>
   <g id="patch_41">
    <path clip-path="url(#pc28a72e956)" d="M 173.222182 576.72 
L 175.048364 576.72 
L 175.048364 549.770347 
L 173.222182 549.770347 
z
" style="fill:#1f77b4;"/>
   </g>
   <g id="patch_42">
    <path clip-path="url(#pc28a72e956)" d="M 175.048364 576.72 
L 176.874545 576.72 
L 176.874545 557.465489 
L 175.048364 557.465489 
z
" style="fill:#1f77b4;"/>
   </g>
   <g id="patch_43">
    <path clip-path="url(#pc28a72e956)" d="M 176.874545 576.72 
L 178.700727 576.72 
L 178.700727 549.570473 
L 176.874545 549.570473 
z
" style="fill:#1f77b4;"/>
   </g>
   <g id="patch_44">
    <path clip-path="url(#pc28a72e956)" d="M 178.700727 576.72 
L 180.526909 576.72 
L 180.526909 531.981577 
L 178.700727 531.981577 
z
" style="fill:#1f77b4;"/>
   </g>
   <g id="patch_45">
    <path clip-path="url(#pc28a72e956)" d="M 180.526909 576.72 
L 182.353091 576.72 
L 182.353091 537.211609 
L 180.526909 537.211609 
z
" style="fill:#1f77b4;"/>
   </g>
   <g id="patch_46">
    <path clip-path="url(#pc28a72e956)" d="M 182.353091 576.72 
L 184.179273 576.72 
L 184.179273 544.60694 
L 182.353091 544.60694 
z
" style="fill:#1f77b4;"/>
   </g>
   <g id="patch_47">
    <path clip-path="url(#pc28a72e956)" d="M 184.179273 576.72 
L 186.005455 576.72 
L 186.005455 545.939432 
L 184.179273 545.939432 
z
" style="fill:#1f77b4;"/>
   </g>
   <g id="patch_48">
    <path clip-path="url(#pc28a72e956)" d="M 186.005455 576.72 
L 187.831636 576.72 
L 187.831636 545.439748 
L 186.005455 545.439748 
z
" style="fill:#1f77b4;"/>
   </g>
   <g id="patch_49">
    <path clip-path="url(#pc28a72e956)" d="M 187.831636 576.72 
L 189.657818 576.72 
L 189.657818 538.477476 
L 187.831636 538.477476 
z
" style="fill:#1f77b4;"/>
   </g>
   <g id="patch_50">
    <path clip-path="url(#pc28a72e956)" d="M 189.657818 576.72 
L 191.484 576.72 
L 191.484 540.143091 
L 189.657818 540.143091 
z
" style="fill:#1f77b4;"/>
   </g>
   <g id="patch_51">
    <path clip-path="url(#pc28a72e956)" d="M 191.484 576.72 
L 193.310182 576.72 
L 193.310182 546.738927 
L 191.484 546.738927 
z
" style="fill:#1f77b4;"/>
   </g>
   <g id="patch_52">
    <path clip-path="url(#pc28a72e956)" d="M 193.310182 576.72 
L 195.136364 576.72 
L 195.136364 530.149401 
L 193.310182 530.149401 
z
" style="fill:#1f77b4;"/>
   </g>
   <g id="patch_53">
    <path clip-path="url(#pc28a72e956)" d="M 195.136364 576.72 
L 196.962545 576.72 
L 196.962545 541.075836 
L 195.136364 541.075836 
z
" style="fill:#1f77b4;"/>
   </g>
   <g id="patch_54">
    <path clip-path="url(#pc28a72e956)" d="M 196.962545 576.72 
L 198.788727 576.72 
L 198.788727 540.009842 
L 196.962545 540.009842 
z
" style="fill:#1f77b4;"/>
   </g>
   <g id="patch_55">
    <path clip-path="url(#pc28a72e956)" d="M 198.788727 576.72 
L 200.614909 576.72 
L 200.614909 537.344858 
L 198.788727 537.344858 
z
" style="fill:#1f77b4;"/>
   </g>
   <g id="patch_56">
    <path clip-path="url(#pc28a72e956)" d="M 200.614909 576.72 
L 202.441091 576.72 
L 202.441091 550.703091 
L 200.614909 550.703091 
z
" style="fill:#1f77b4;"/>
   </g>
   <g id="patch_57">
    <path clip-path="url(#pc28a72e956)" d="M 202.441091 576.72 
L 204.267273 576.72 
L 204.267273 547.371861 
L 202.441091 547.371861 
z
" style="fill:#1f77b4;"/>
   </g>
   <g id="patch_58">
    <path clip-path="url(#pc28a72e956)" d="M 204.267273 576.72 
L 206.093455 576.72 
L 206.093455 544.873438 
L 204.267273 544.873438 
z
" style="fill:#1f77b4;"/>
   </g>
   <g id="patch_59">
    <path clip-path="url(#pc28a72e956)" d="M 206.093455 576.72 
L 207.919636 576.72 
L 207.919636 549.070789 
L 206.093455 549.070789 
z
" style="fill:#1f77b4;"/>
   </g>
   <g id="patch_60">
    <path clip-path="url(#pc28a72e956)" d="M 207.919636 576.72 
L 209.745818 576.72 
L 209.745818 549.23735 
L 207.919636 549.23735 
z
" style="fill:#1f77b4;"/>
   </g>
   <g id="patch_61">
    <path clip-path="url(#pc28a72e956)" d="M 209.745818 576.72 
L 211.572 576.72 
L 211.572 553.268139 
L 209.745818 553.268139 
z
" style="fill:#1f77b4;"/>
   </g>
   <g id="patch_62">
    <path clip-path="url(#pc28a72e956)" d="M 211.572 576.72 
L 213.398182 576.72 
L 213.398182 550.236719 
L 211.572 550.236719 
z
" style="fill:#1f77b4;"/>
   </g>
   <g id="patch_63">
    <path clip-path="url(#pc28a72e956)" d="M 213.398182 576.72 
L 215.224364 576.72 
L 215.224364 553.634574 
L 213.398182 553.634574 
z
" style="fill:#1f77b4;"/>
   </g>
   <g id="patch_64">
    <path clip-path="url(#pc28a72e956)" d="M 215.224364 576.72 
L 217.050545 576.72 
L 217.050545 544.307129 
L 215.224364 544.307129 
z
" style="fill:#1f77b4;"/>
   </g>
   <g id="patch_65">
    <path clip-path="url(#pc28a72e956)" d="M 217.050545 576.72 
L 218.876727 576.72 
L 218.876727 537.344858 
L 217.050545 537.344858 
z
" style="fill:#1f77b4;"/>
   </g>
   <g id="patch_66">
    <path clip-path="url(#pc28a72e956)" d="M 218.876727 576.72 
L 220.702909 576.72 
L 220.702909 543.640883 
L 218.876727 543.640883 
z
" style="fill:#1f77b4;"/>
   </g>
   <g id="patch_67">
    <path clip-path="url(#pc28a72e956)" d="M 220.702909 576.72 
L 222.529091 576.72 
L 222.529091 536.911798 
L 220.702909 536.911798 
z
" style="fill:#1f77b4;"/>
   </g>
   <g id="patch_68">
    <path clip-path="url(#pc28a72e956)" d="M 222.529091 576.72 
L 224.355273 576.72 
L 224.355273 538.710662 
L 222.529091 538.710662 
z
" style="fill:#1f77b4;"/>
   </g>
   <g id="patch_69">
    <path clip-path="url(#pc28a72e956)" d="M 224.355273 576.72 
L 226.181455 576.72 
L 226.181455 547.105363 
L 224.355273 547.105363 
z
" style="fill:#1f77b4;"/>
   </g>
   <g id="patch_70">
    <path clip-path="url(#pc28a72e956)" d="M 226.181455 576.72 
L 228.007636 576.72 
L 228.007636 557.165678 
L 226.181455 557.165678 
z
" style="fill:#1f77b4;"/>
   </g>
   <g id="patch_71">
    <path clip-path="url(#pc28a72e956)" d="M 228.007636 576.72 
L 229.833818 576.72 
L 229.833818 557.33224 
L 228.007636 557.33224 
z
" style="fill:#1f77b4;"/>
   </g>
   <g id="patch_72">
    <path clip-path="url(#pc28a72e956)" d="M 229.833818 576.72 
L 231.66 576.72 
L 231.66 552.735142 
L 229.833818 552.735142 
z
" style="fill:#1f77b4;"/>
   </g>
   <g id="patch_73">
    <path clip-path="url(#pc28a72e956)" d="M 231.66 576.72 
L 233.486182 576.72 
L 233.486182 556.566057 
L 231.66 556.566057 
z
" style="fill:#1f77b4;"/>
   </g>
   <g id="patch_74">
    <path clip-path="url(#pc28a72e956)" d="M 233.486182 576.72 
L 235.312364 576.72 
L 235.312364 558.731356 
L 233.486182 558.731356 
z
" style="fill:#1f77b4;"/>
   </g>
   <g id="patch_75">
    <path clip-path="url(#pc28a72e956)" d="M 235.312364 576.72 
L 237.138545 576.72 
L 237.138545 557.465489 
L 235.312364 557.465489 
z
" style="fill:#1f77b4;"/>
   </g>
   <g id="patch_76">
    <path clip-path="url(#pc28a72e956)" d="M 237.138545 576.72 
L 238.964727 576.72 
L 238.964727 546.139306 
L 237.138545 546.139306 
z
" style="fill:#1f77b4;"/>
   </g>
   <g id="patch_77">
    <path clip-path="url(#pc28a72e956)" d="M 238.964727 576.72 
L 240.790909 576.72 
L 240.790909 544.407066 
L 238.964727 544.407066 
z
" style="fill:#1f77b4;"/>
   </g>
   <g id="patch_78">
    <path clip-path="url(#pc28a72e956)" d="M 240.790909 576.72 
L 242.617091 576.72 
L 242.617091 549.137413 
L 240.790909 549.137413 
z
" style="fill:#1f77b4;"/>
   </g>
   <g id="patch_79">
    <path clip-path="url(#pc28a72e956)" d="M 242.617091 576.72 
L 244.443273 576.72 
L 244.443273 554.334132 
L 242.617091 554.334132 
z
" style="fill:#1f77b4;"/>
   </g>
   <g id="patch_80">
    <path clip-path="url(#pc28a72e956)" d="M 244.443273 576.72 
L 246.269455 576.72 
L 246.269455 552.035584 
L 244.443273 552.035584 
z
" style="fill:#1f77b4;"/>
   </g>
   <g id="patch_81">
    <path clip-path="url(#pc28a72e956)" d="M 246.269455 576.72 
L 248.095636 576.72 
L 248.095636 550.136782 
L 246.269455 550.136782 
z
" style="fill:#1f77b4;"/>
   </g>
   <g id="patch_82">
    <path clip-path="url(#pc28a72e956)" d="M 248.095636 576.72 
L 249.921818 576.72 
L 249.921818 551.369338 
L 248.095636 551.369338 
z
" style="fill:#1f77b4;"/>
   </g>
   <g id="patch_83">
    <path clip-path="url(#pc28a72e956)" d="M 249.921818 576.72 
L 251.748 576.72 
L 251.748 556.332871 
L 249.921818 556.332871 
z
" style="fill:#1f77b4;"/>
   </g>
   <g id="patch_84">
    <path clip-path="url(#pc28a72e956)" d="M 251.748 576.72 
L 253.574182 576.72 
L 253.574182 556.632681 
L 251.748 556.632681 
z
" style="fill:#1f77b4;"/>
   </g>
   <g id="patch_85">
    <path clip-path="url(#pc28a72e956)" d="M 253.574182 576.72 
L 255.400364 576.72 
L 255.400364 554.867129 
L 253.574182 554.867129 
z
" style="fill:#1f77b4;"/>
   </g>
   <g id="patch_86">
    <path clip-path="url(#pc28a72e956)" d="M 255.400364 576.72 
L 257.226545 576.72 
L 257.226545 555.833186 
L 255.400364 555.833186 
z
" style="fill:#1f77b4;"/>
   </g>
   <g id="patch_87">
    <path clip-path="url(#pc28a72e956)" d="M 257.226545 576.72 
L 259.052727 576.72 
L 259.052727 559.597476 
L 257.226545 559.597476 
z
" style="fill:#1f77b4;"/>
   </g>
   <g id="patch_88">
    <path clip-path="url(#pc28a72e956)" d="M 259.052727 576.72 
L 260.878909 576.72 
L 260.878909 561.562902 
L 259.052727 561.562902 
z
" style="fill:#1f77b4;"/>
   </g>
   <g id="patch_89">
    <path clip-path="url(#pc28a72e956)" d="M 260.878909 576.72 
L 262.705091 576.72 
L 262.705091 553.068265 
L 260.878909 553.068265 
z
" style="fill:#1f77b4;"/>
   </g>
   <g id="patch_90">
    <path clip-path="url(#pc28a72e956)" d="M 262.705091 576.72 
L 264.531273 576.72 
L 264.531273 557.498801 
L 262.705091 557.498801 
z
" style="fill:#1f77b4;"/>
   </g>
   <g id="patch_91">
    <path clip-path="url(#pc28a72e956)" d="M 264.531273 576.72 
L 266.357455 576.72 
L 266.357455 557.432177 
L 264.531273 557.432177 
z
" style="fill:#1f77b4;"/>
   </g>
   <g id="patch_92">
    <path clip-path="url(#pc28a72e956)" d="M 266.357455 576.72 
L 268.183636 576.72 
L 268.183636 553.701199 
L 266.357455 553.701199 
z
" style="fill:#1f77b4;"/>
   </g>
   <g id="patch_93">
    <path clip-path="url(#pc28a72e956)" d="M 268.183636 576.72 
L 270.009818 576.72 
L 270.009818 560.063849 
L 268.183636 560.063849 
z
" style="fill:#1f77b4;"/>
   </g>
   <g id="patch_94">
    <path clip-path="url(#pc28a72e956)" d="M 270.009818 576.72 
L 271.836 576.72 
L 271.836 549.970221 
L 270.009818 549.970221 
z
" style="fill:#1f77b4;"/>
   </g>
   <g id="patch_95">
    <path clip-path="url(#pc28a72e956)" d="M 271.836 576.72 
L 273.662182 576.72 
L 273.662182 539.676719 
L 271.836 539.676719 
z
" style="fill:#1f77b4;"/>
   </g>
   <g id="patch_96">
    <path clip-path="url(#pc28a72e956)" d="M 273.662182 576.72 
L 275.488364 576.72 
L 275.488364 549.570473 
L 273.662182 549.570473 
z
" style="fill:#1f77b4;"/>
   </g>
   <g id="patch_97">
    <path clip-path="url(#pc28a72e956)" d="M 275.488364 576.72 
L 277.314545 576.72 
L 277.314545 559.197729 
L 275.488364 559.197729 
z
" style="fill:#1f77b4;"/>
   </g>
   <g id="patch_98">
    <path clip-path="url(#pc28a72e956)" d="M 277.314545 576.72 
L 279.140727 576.72 
L 279.140727 556.166309 
L 277.314545 556.166309 
z
" style="fill:#1f77b4;"/>
   </g>
   <g id="patch_99">
    <path clip-path="url(#pc28a72e956)" d="M 279.140727 576.72 
L 280.966909 576.72 
L 280.966909 555.333502 
L 279.140727 555.333502 
z
" style="fill:#1f77b4;"/>
   </g>
   <g id="patch_100">
    <path clip-path="url(#pc28a72e956)" d="M 280.966909 576.72 
L 282.793091 576.72 
L 282.793091 546.972114 
L 280.966909 546.972114 
z
" style="fill:#1f77b4;"/>
   </g>
   <g id="patch_101">
    <path clip-path="url(#pc28a72e956)" d="M 282.793091 576.72 
L 284.619273 576.72 
L 284.619273 555.067003 
L 282.793091 555.067003 
z
" style="fill:#1f77b4;"/>
   </g>
   <g id="patch_102">
    <path clip-path="url(#pc28a72e956)" d="M 284.619273 576.72 
L 286.445455 576.72 
L 286.445455 554.067634 
L 284.619273 554.067634 
z
" style="fill:#1f77b4;"/>
   </g>
   <g id="patch_103">
    <path clip-path="url(#pc28a72e956)" d="M 286.445455 576.72 
L 288.271636 576.72 
L 288.271636 549.503849 
L 286.445455 549.503849 
z
" style="fill:#1f77b4;"/>
   </g>
   <g id="patch_104">
    <path clip-path="url(#pc28a72e956)" d="M 288.271636 576.72 
L 290.097818 576.72 
L 290.097818 542.075205 
L 288.271636 542.075205 
z
" style="fill:#1f77b4;"/>
   </g>
   <g id="patch_105">
    <path clip-path="url(#pc28a72e956)" d="M 290.097818 576.72 
L 291.924 576.72 
L 291.924 544.040631 
L 290.097818 544.040631 
z
" style="fill:#1f77b4;"/>
   </g>
   <g id="patch_106">
    <path clip-path="url(#pc28a72e956)" d="M 291.924 576.72 
L 293.750182 576.72 
L 293.750182 533.813754 
L 291.924 533.813754 
z
" style="fill:#1f77b4;"/>
   </g>
   <g id="patch_107">
    <path clip-path="url(#pc28a72e956)" d="M 293.750182 576.72 
L 295.576364 576.72 
L 295.576364 542.44164 
L 293.750182 542.44164 
z
" style="fill:#1f77b4;"/>
   </g>
   <g id="patch_108">
    <path clip-path="url(#pc28a72e956)" d="M 295.576364 576.72 
L 297.402545 576.72 
L 297.402545 532.814385 
L 295.576364 532.814385 
z
" style="fill:#1f77b4;"/>
   </g>
   <g id="patch_109">
    <path clip-path="url(#pc28a72e956)" d="M 297.402545 576.72 
L 299.228727 576.72 
L 299.228727 535.046309 
L 297.402545 535.046309 
z
" style="fill:#1f77b4;"/>
   </g>
   <g id="patch_110">
    <path clip-path="url(#pc28a72e956)" d="M 299.228727 576.72 
L 301.054909 576.72 
L 301.054909 533.947003 
L 299.228727 533.947003 
z
" style="fill:#1f77b4;"/>
   </g>
   <g id="patch_111">
    <path clip-path="url(#pc28a72e956)" d="M 301.054909 576.72 
L 302.881091 576.72 
L 302.881091 527.850852 
L 301.054909 527.850852 
z
" style="fill:#1f77b4;"/>
   </g>
   <g id="patch_112">
    <path clip-path="url(#pc28a72e956)" d="M 302.881091 576.72 
L 304.707273 576.72 
L 304.707273 525.95205 
L 302.881091 525.95205 
z
" style="fill:#1f77b4;"/>
   </g>
   <g id="patch_113">
    <path clip-path="url(#pc28a72e956)" d="M 304.707273 576.72 
L 306.533455 576.72 
L 306.533455 538.477476 
L 304.707273 538.477476 
z
" style="fill:#1f77b4;"/>
   </g>
   <g id="patch_114">
    <path clip-path="url(#pc28a72e956)" d="M 306.533455 576.72 
L 308.359636 576.72 
L 308.359636 546.105994 
L 306.533455 546.105994 
z
" style="fill:#1f77b4;"/>
   </g>
   <g id="patch_115">
    <path clip-path="url(#pc28a72e956)" d="M 308.359636 576.72 
L 310.185818 576.72 
L 310.185818 547.038738 
L 308.359636 547.038738 
z
" style="fill:#1f77b4;"/>
   </g>
   <g id="patch_116">
    <path clip-path="url(#pc28a72e956)" d="M 310.185818 576.72 
L 312.012 576.72 
L 312.012 540.309653 
L 310.185818 540.309653 
z
" style="fill:#1f77b4;"/>
   </g>
   <g id="patch_117">
    <path clip-path="url(#pc28a72e956)" d="M 312.012 576.72 
L 313.838182 576.72 
L 313.838182 537.81123 
L 312.012 537.81123 
z
" style="fill:#1f77b4;"/>
   </g>
   <g id="patch_118">
    <path clip-path="url(#pc28a72e956)" d="M 313.838182 576.72 
L 315.664364 576.72 
L 315.664364 542.108517 
L 313.838182 542.108517 
z
" style="fill:#1f77b4;"/>
   </g>
   <g id="patch_119">
    <path clip-path="url(#pc28a72e956)" d="M 315.664364 576.72 
L 317.490545 576.72 
L 317.490545 538.877224 
L 315.664364 538.877224 
z
" style="fill:#1f77b4;"/>
   </g>
   <g id="patch_120">
    <path clip-path="url(#pc28a72e956)" d="M 317.490545 576.72 
L 319.316727 576.72 
L 319.316727 540.776025 
L 317.490545 540.776025 
z
" style="fill:#1f77b4;"/>
   </g>
   <g id="patch_121">
    <path clip-path="url(#pc28a72e956)" d="M 319.316727 576.72 
L 321.142909 576.72 
L 321.142909 534.413375 
L 319.316727 534.413375 
z
" style="fill:#1f77b4;"/>
   </g>
   <g id="patch_122">
    <path clip-path="url(#pc28a72e956)" d="M 321.142909 576.72 
L 322.969091 576.72 
L 322.969091 531.44858 
L 321.142909 531.44858 
z
" style="fill:#1f77b4;"/>
   </g>
   <g id="patch_123">
    <path clip-path="url(#pc28a72e956)" d="M 322.969091 576.72 
L 324.795273 576.72 
L 324.795273 524.219811 
L 322.969091 524.219811 
z
" style="fill:#1f77b4;"/>
   </g>
   <g id="patch_124">
    <path clip-path="url(#pc28a72e956)" d="M 324.795273 576.72 
L 326.621455 576.72 
L 326.621455 525.552303 
L 324.795273 525.552303 
z
" style="fill:#1f77b4;"/>
   </g>
   <g id="patch_125">
    <path clip-path="url(#pc28a72e956)" d="M 326.621455 576.72 
L 328.447636 576.72 
L 328.447636 544.307129 
L 326.621455 544.307129 
z
" style="fill:#1f77b4;"/>
   </g>
   <g id="patch_126">
    <path clip-path="url(#pc28a72e956)" d="M 328.447636 576.72 
L 330.273818 576.72 
L 330.273818 530.549148 
L 328.447636 530.549148 
z
" style="fill:#1f77b4;"/>
   </g>
   <g id="patch_127">
    <path clip-path="url(#pc28a72e956)" d="M 330.273818 576.72 
L 332.1 576.72 
L 332.1 525.585615 
L 330.273818 525.585615 
z
" style="fill:#1f77b4;"/>
   </g>
   <g id="patch_128">
    <path clip-path="url(#pc28a72e956)" d="M 332.1 576.72 
L 333.926182 576.72 
L 333.926182 531.182082 
L 332.1 531.182082 
z
" style="fill:#1f77b4;"/>
   </g>
   <g id="patch_129">
    <path clip-path="url(#pc28a72e956)" d="M 333.926182 576.72 
L 335.752364 576.72 
L 335.752364 526.884795 
L 333.926182 526.884795 
z
" style="fill:#1f77b4;"/>
   </g>
   <g id="patch_130">
    <path clip-path="url(#pc28a72e956)" d="M 335.752364 576.72 
L 337.578545 576.72 
L 337.578545 526.351798 
L 335.752364 526.351798 
z
" style="fill:#1f77b4;"/>
   </g>
   <g id="patch_131">
    <path clip-path="url(#pc28a72e956)" d="M 337.578545 576.72 
L 339.404727 576.72 
L 339.404727 525.21918 
L 337.578545 525.21918 
z
" style="fill:#1f77b4;"/>
   </g>
   <g id="patch_132">
    <path clip-path="url(#pc28a72e956)" d="M 339.404727 576.72 
L 341.230909 576.72 
L 341.230909 522.920631 
L 339.404727 522.920631 
z
" style="fill:#1f77b4;"/>
   </g>
   <g id="patch_133">
    <path clip-path="url(#pc28a72e956)" d="M 341.230909 576.72 
L 343.057091 576.72 
L 343.057091 521.88795 
L 341.230909 521.88795 
z
" style="fill:#1f77b4;"/>
   </g>
   <g id="patch_134">
    <path clip-path="url(#pc28a72e956)" d="M 343.057091 576.72 
L 344.883273 576.72 
L 344.883273 520.821956 
L 343.057091 520.821956 
z
" style="fill:#1f77b4;"/>
   </g>
   <g id="patch_135">
    <path clip-path="url(#pc28a72e956)" d="M 344.883273 576.72 
L 346.709455 576.72 
L 346.709455 517.99041 
L 344.883273 517.99041 
z
" style="fill:#1f77b4;"/>
   </g>
   <g id="patch_136">
    <path clip-path="url(#pc28a72e956)" d="M 346.709455 576.72 
L 348.535636 576.72 
L 348.535636 535.545994 
L 346.709455 535.545994 
z
" style="fill:#1f77b4;"/>
   </g>
   <g id="patch_137">
    <path clip-path="url(#pc28a72e956)" d="M 348.535636 576.72 
L 350.361818 576.72 
L 350.361818 528.283912 
L 348.535636 528.283912 
z
" style="fill:#1f77b4;"/>
   </g>
   <g id="patch_138">
    <path clip-path="url(#pc28a72e956)" d="M 350.361818 576.72 
L 352.188 576.72 
L 352.188 509.962145 
L 350.361818 509.962145 
z
" style="fill:#1f77b4;"/>
   </g>
   <g id="patch_139">
    <path clip-path="url(#pc28a72e956)" d="M 352.188 576.72 
L 354.014182 576.72 
L 354.014182 513.859685 
L 352.188 513.859685 
z
" style="fill:#1f77b4;"/>
   </g>
   <g id="patch_140">
    <path clip-path="url(#pc28a72e956)" d="M 354.014182 576.72 
L 355.840364 576.72 
L 355.840364 515.325426 
L 354.014182 515.325426 
z
" style="fill:#1f77b4;"/>
   </g>
   <g id="patch_141">
    <path clip-path="url(#pc28a72e956)" d="M 355.840364 576.72 
L 357.666545 576.72 
L 357.666545 501.833943 
L 355.840364 501.833943 
z
" style="fill:#1f77b4;"/>
   </g>
   <g id="patch_142">
    <path clip-path="url(#pc28a72e956)" d="M 357.666545 576.72 
L 359.492727 576.72 
L 359.492727 488.04265 
L 357.666545 488.04265 
z
" style="fill:#1f77b4;"/>
   </g>
   <g id="patch_143">
    <path clip-path="url(#pc28a72e956)" d="M 359.492727 576.72 
L 361.318909 576.72 
L 361.318909 497.436719 
L 359.492727 497.436719 
z
" style="fill:#1f77b4;"/>
   </g>
   <g id="patch_144">
    <path clip-path="url(#pc28a72e956)" d="M 361.318909 576.72 
L 363.145091 576.72 
L 363.145091 495.038233 
L 361.318909 495.038233 
z
" style="fill:#1f77b4;"/>
   </g>
   <g id="patch_145">
    <path clip-path="url(#pc28a72e956)" d="M 363.145091 576.72 
L 364.971273 576.72 
L 364.971273 498.536025 
L 363.145091 498.536025 
z
" style="fill:#1f77b4;"/>
   </g>
   <g id="patch_146">
    <path clip-path="url(#pc28a72e956)" d="M 364.971273 576.72 
L 366.797455 576.72 
L 366.797455 497.070284 
L 364.971273 497.070284 
z
" style="fill:#1f77b4;"/>
   </g>
   <g id="patch_147">
    <path clip-path="url(#pc28a72e956)" d="M 366.797455 576.72 
L 368.623636 576.72 
L 368.623636 510.728328 
L 366.797455 510.728328 
z
" style="fill:#1f77b4;"/>
   </g>
   <g id="patch_148">
    <path clip-path="url(#pc28a72e956)" d="M 368.623636 576.72 
L 370.449818 576.72 
L 370.449818 512.260694 
L 368.623636 512.260694 
z
" style="fill:#1f77b4;"/>
   </g>
   <g id="patch_149">
    <path clip-path="url(#pc28a72e956)" d="M 370.449818 576.72 
L 372.276 576.72 
L 372.276 503.766057 
L 370.449818 503.766057 
z
" style="fill:#1f77b4;"/>
   </g>
   <g id="patch_150">
    <path clip-path="url(#pc28a72e956)" d="M 372.276 576.72 
L 374.102182 576.72 
L 374.102182 502.700063 
L 372.276 502.700063 
z
" style="fill:#1f77b4;"/>
   </g>
   <g id="patch_151">
    <path clip-path="url(#pc28a72e956)" d="M 374.102182 576.72 
L 375.928364 576.72 
L 375.928364 502.500189 
L 374.102182 502.500189 
z
" style="fill:#1f77b4;"/>
   </g>
   <g id="patch_152">
    <path clip-path="url(#pc28a72e956)" d="M 375.928364 576.72 
L 377.754545 576.72 
L 377.754545 496.070915 
L 375.928364 496.070915 
z
" style="fill:#1f77b4;"/>
   </g>
   <g id="patch_153">
    <path clip-path="url(#pc28a72e956)" d="M 377.754545 576.72 
L 379.580727 576.72 
L 379.580727 489.508391 
L 377.754545 489.508391 
z
" style="fill:#1f77b4;"/>
   </g>
   <g id="patch_154">
    <path clip-path="url(#pc28a72e956)" d="M 379.580727 576.72 
L 381.406909 576.72 
L 381.406909 483.71205 
L 379.580727 483.71205 
z
" style="fill:#1f77b4;"/>
   </g>
   <g id="patch_155">
    <path clip-path="url(#pc28a72e956)" d="M 381.406909 576.72 
L 383.233091 576.72 
L 383.233091 493.639117 
L 381.406909 493.639117 
z
" style="fill:#1f77b4;"/>
   </g>
   <g id="patch_156">
    <path clip-path="url(#pc28a72e956)" d="M 383.233091 576.72 
L 385.059273 576.72 
L 385.059273 509.629022 
L 383.233091 509.629022 
z
" style="fill:#1f77b4;"/>
   </g>
   <g id="patch_157">
    <path clip-path="url(#pc28a72e956)" d="M 385.059273 576.72 
L 386.885455 576.72 
L 386.885455 498.136278 
L 385.059273 498.136278 
z
" style="fill:#1f77b4;"/>
   </g>
   <g id="patch_158">
    <path clip-path="url(#pc28a72e956)" d="M 386.885455 576.72 
L 388.711636 576.72 
L 388.711636 503.766057 
L 386.885455 503.766057 
z
" style="fill:#1f77b4;"/>
   </g>
   <g id="patch_159">
    <path clip-path="url(#pc28a72e956)" d="M 388.711636 576.72 
L 390.537818 576.72 
L 390.537818 509.762271 
L 388.711636 509.762271 
z
" style="fill:#1f77b4;"/>
   </g>
   <g id="patch_160">
    <path clip-path="url(#pc28a72e956)" d="M 390.537818 576.72 
L 392.364 576.72 
L 392.364 493.739054 
L 390.537818 493.739054 
z
" style="fill:#1f77b4;"/>
   </g>
   <g id="patch_161">
    <path clip-path="url(#pc28a72e956)" d="M 392.364 576.72 
L 394.190182 576.72 
L 394.190182 286.569842 
L 392.364 286.569842 
z
" style="fill:#1f77b4;"/>
   </g>
   <g id="patch_162">
    <path clip-path="url(#pc28a72e956)" d="M 394.190182 576.72 
L 396.016364 576.72 
L 396.016364 102.985741 
L 394.190182 102.985741 
z
" style="fill:#1f77b4;"/>
   </g>
   <g id="patch_163">
    <path clip-path="url(#pc28a72e956)" d="M 396.016364 576.72 
L 397.842545 576.72 
L 397.842545 188.798233 
L 396.016364 188.798233 
z
" style="fill:#1f77b4;"/>
   </g>
   <g id="patch_164">
    <path clip-path="url(#pc28a72e956)" d="M 397.842545 576.72 
L 399.668727 576.72 
L 399.668727 376.712934 
L 397.842545 376.712934 
z
" style="fill:#1f77b4;"/>
   </g>
   <g id="patch_165">
    <path clip-path="url(#pc28a72e956)" d="M 399.668727 576.72 
L 401.494909 576.72 
L 401.494909 472.152681 
L 399.668727 472.152681 
z
" style="fill:#1f77b4;"/>
   </g>
   <g id="patch_166">
    <path clip-path="url(#pc28a72e956)" d="M 401.494909 576.72 
L 403.321091 576.72 
L 403.321091 505.531609 
L 401.494909 505.531609 
z
" style="fill:#1f77b4;"/>
   </g>
   <g id="patch_167">
    <path clip-path="url(#pc28a72e956)" d="M 403.321091 576.72 
L 405.147273 576.72 
L 405.147273 518.889842 
L 403.321091 518.889842 
z
" style="fill:#1f77b4;"/>
   </g>
   <g id="patch_168">
    <path clip-path="url(#pc28a72e956)" d="M 405.147273 576.72 
L 406.973455 576.72 
L 406.973455 520.15571 
L 405.147273 520.15571 
z
" style="fill:#1f77b4;"/>
   </g>
   <g id="patch_169">
    <path clip-path="url(#pc28a72e956)" d="M 406.973455 576.72 
L 408.799636 576.72 
L 408.799636 526.618297 
L 406.973455 526.618297 
z
" style="fill:#1f77b4;"/>
   </g>
   <g id="patch_170">
    <path clip-path="url(#pc28a72e956)" d="M 408.799636 576.72 
L 410.625818 576.72 
L 410.625818 530.182713 
L 408.799636 530.182713 
z
" style="fill:#1f77b4;"/>
   </g>
   <g id="patch_171">
    <path clip-path="url(#pc28a72e956)" d="M 410.625818 576.72 
L 412.452 576.72 
L 412.452 522.887319 
L 410.625818 522.887319 
z
" style="fill:#1f77b4;"/>
   </g>
   <g id="patch_172">
    <path clip-path="url(#pc28a72e956)" d="M 412.452 576.72 
L 414.278182 576.72 
L 414.278182 517.324164 
L 412.452 517.324164 
z
" style="fill:#1f77b4;"/>
   </g>
   <g id="patch_173">
    <path clip-path="url(#pc28a72e956)" d="M 414.278182 576.72 
L 416.104364 576.72 
L 416.104364 537.111672 
L 414.278182 537.111672 
z
" style="fill:#1f77b4;"/>
   </g>
   <g id="patch_174">
    <path clip-path="url(#pc28a72e956)" d="M 416.104364 576.72 
L 417.930545 576.72 
L 417.930545 549.170726 
L 416.104364 549.170726 
z
" style="fill:#1f77b4;"/>
   </g>
   <g id="patch_175">
    <path clip-path="url(#pc28a72e956)" d="M 417.930545 576.72 
L 419.756727 576.72 
L 419.756727 555.733249 
L 417.930545 555.733249 
z
" style="fill:#1f77b4;"/>
   </g>
   <g id="patch_176">
    <path clip-path="url(#pc28a72e956)" d="M 419.756727 576.72 
L 421.582909 576.72 
L 421.582909 560.696782 
L 419.756727 560.696782 
z
" style="fill:#1f77b4;"/>
   </g>
   <g id="patch_177">
    <path clip-path="url(#pc28a72e956)" d="M 421.582909 576.72 
L 423.409091 576.72 
L 423.409091 561.363028 
L 421.582909 561.363028 
z
" style="fill:#1f77b4;"/>
   </g>
   <g id="patch_178">
    <path clip-path="url(#pc28a72e956)" d="M 423.409091 576.72 
L 425.235273 576.72 
L 425.235273 551.40265 
L 423.409091 551.40265 
z
" style="fill:#1f77b4;"/>
   </g>
   <g id="patch_179">
    <path clip-path="url(#pc28a72e956)" d="M 425.235273 576.72 
L 427.061455 576.72 
L 427.061455 555.000379 
L 425.235273 555.000379 
z
" style="fill:#1f77b4;"/>
   </g>
   <g id="patch_180">
    <path clip-path="url(#pc28a72e956)" d="M 427.061455 576.72 
L 428.887636 576.72 
L 428.887636 549.337287 
L 427.061455 549.337287 
z
" style="fill:#1f77b4;"/>
   </g>
   <g id="patch_181">
    <path clip-path="url(#pc28a72e956)" d="M 428.887636 576.72 
L 430.713818 576.72 
L 430.713818 542.341703 
L 428.887636 542.341703 
z
" style="fill:#1f77b4;"/>
   </g>
   <g id="patch_182">
    <path clip-path="url(#pc28a72e956)" d="M 430.713818 576.72 
L 432.54 576.72 
L 432.54 547.771609 
L 430.713818 547.771609 
z
" style="fill:#1f77b4;"/>
   </g>
   <g id="patch_183">
    <path clip-path="url(#pc28a72e956)" d="M 432.54 576.72 
L 434.366182 576.72 
L 434.366182 552.26877 
L 432.54 552.26877 
z
" style="fill:#1f77b4;"/>
   </g>
   <g id="patch_184">
    <path clip-path="url(#pc28a72e956)" d="M 434.366182 576.72 
L 436.192364 576.72 
L 436.192364 546.006057 
L 434.366182 546.006057 
z
" style="fill:#1f77b4;"/>
   </g>
   <g id="patch_185">
    <path clip-path="url(#pc28a72e956)" d="M 436.192364 576.72 
L 438.018545 576.72 
L 438.018545 545.306498 
L 436.192364 545.306498 
z
" style="fill:#1f77b4;"/>
   </g>
   <g id="patch_186">
    <path clip-path="url(#pc28a72e956)" d="M 438.018545 576.72 
L 439.844727 576.72 
L 439.844727 549.470536 
L 438.018545 549.470536 
z
" style="fill:#1f77b4;"/>
   </g>
   <g id="patch_187">
    <path clip-path="url(#pc28a72e956)" d="M 439.844727 576.72 
L 441.670909 576.72 
L 441.670909 534.546625 
L 439.844727 534.546625 
z
" style="fill:#1f77b4;"/>
   </g>
   <g id="patch_188">
    <path clip-path="url(#pc28a72e956)" d="M 441.670909 576.72 
L 443.497091 576.72 
L 443.497091 541.842019 
L 441.670909 541.842019 
z
" style="fill:#1f77b4;"/>
   </g>
   <g id="patch_189">
    <path clip-path="url(#pc28a72e956)" d="M 443.497091 576.72 
L 445.323273 576.72 
L 445.323273 546.605678 
L 443.497091 546.605678 
z
" style="fill:#1f77b4;"/>
   </g>
   <g id="patch_190">
    <path clip-path="url(#pc28a72e956)" d="M 445.323273 576.72 
L 447.149455 576.72 
L 447.149455 560.063849 
L 445.323273 560.063849 
z
" style="fill:#1f77b4;"/>
   </g>
   <g id="patch_191">
    <path clip-path="url(#pc28a72e956)" d="M 447.149455 576.72 
L 448.975636 576.72 
L 448.975636 559.36429 
L 447.149455 559.36429 
z
" style="fill:#1f77b4;"/>
   </g>
   <g id="patch_192">
    <path clip-path="url(#pc28a72e956)" d="M 448.975636 576.72 
L 450.801818 576.72 
L 450.801818 560.530221 
L 448.975636 560.530221 
z
" style="fill:#1f77b4;"/>
   </g>
   <g id="patch_193">
    <path clip-path="url(#pc28a72e956)" d="M 450.801818 576.72 
L 452.628 576.72 
L 452.628 565.260568 
L 450.801818 565.260568 
z
" style="fill:#1f77b4;"/>
   </g>
   <g id="patch_194">
    <path clip-path="url(#pc28a72e956)" d="M 452.628 576.72 
L 454.454182 576.72 
L 454.454182 562.229148 
L 452.628 562.229148 
z
" style="fill:#1f77b4;"/>
   </g>
   <g id="patch_195">
    <path clip-path="url(#pc28a72e956)" d="M 454.454182 576.72 
L 456.280364 576.72 
L 456.280364 565.160631 
L 454.454182 565.160631 
z
" style="fill:#1f77b4;"/>
   </g>
   <g id="patch_196">
    <path clip-path="url(#pc28a72e956)" d="M 456.280364 576.72 
L 458.106545 576.72 
L 458.106545 569.05817 
L 456.280364 569.05817 
z
" style="fill:#1f77b4;"/>
   </g>
   <g id="patch_197">
    <path clip-path="url(#pc28a72e956)" d="M 458.106545 576.72 
L 459.932727 576.72 
L 459.932727 562.129211 
L 458.106545 562.129211 
z
" style="fill:#1f77b4;"/>
   </g>
   <g id="patch_198">
    <path clip-path="url(#pc28a72e956)" d="M 459.932727 576.72 
L 461.758909 576.72 
L 461.758909 560.263722 
L 459.932727 560.263722 
z
" style="fill:#1f77b4;"/>
   </g>
   <g id="patch_199">
    <path clip-path="url(#pc28a72e956)" d="M 461.758909 576.72 
L 463.585091 576.72 
L 463.585091 564.927445 
L 461.758909 564.927445 
z
" style="fill:#1f77b4;"/>
   </g>
   <g id="patch_200">
    <path clip-path="url(#pc28a72e956)" d="M 463.585091 576.72 
L 465.411273 576.72 
L 465.411273 566.359874 
L 463.585091 566.359874 
z
" style="fill:#1f77b4;"/>
   </g>
   <g id="patch_201">
    <path clip-path="url(#pc28a72e956)" d="M 465.411273 576.72 
L 467.237455 576.72 
L 467.237455 562.095899 
L 465.411273 562.095899 
z
" style="fill:#1f77b4;"/>
   </g>
   <g id="patch_202">
    <path clip-path="url(#pc28a72e956)" d="M 467.237455 576.72 
L 469.063636 576.72 
L 469.063636 567.525804 
L 467.237455 567.525804 
z
" style="fill:#1f77b4;"/>
   </g>
   <g id="patch_203">
    <path clip-path="url(#pc28a72e956)" d="M 469.063636 576.72 
L 470.889818 576.72 
L 470.889818 570.590536 
L 469.063636 570.590536 
z
" style="fill:#1f77b4;"/>
   </g>
   <g id="patch_204">
    <path clip-path="url(#pc28a72e956)" d="M 470.889818 576.72 
L 472.716 576.72 
L 472.716 566.559748 
L 470.889818 566.559748 
z
" style="fill:#1f77b4;"/>
   </g>
   <g id="patch_205">
    <path clip-path="url(#pc28a72e956)" d="M 472.716 576.72 
L 474.542182 576.72 
L 474.542182 562.329085 
L 472.716 562.329085 
z
" style="fill:#1f77b4;"/>
   </g>
   <g id="patch_206">
    <path clip-path="url(#pc28a72e956)" d="M 474.542182 576.72 
L 476.368364 576.72 
L 476.368364 568.62511 
L 474.542182 568.62511 
z
" style="fill:#1f77b4;"/>
   </g>
   <g id="patch_207">
    <path clip-path="url(#pc28a72e956)" d="M 476.368364 576.72 
L 478.194545 576.72 
L 478.194545 567.225994 
L 476.368364 567.225994 
z
" style="fill:#1f77b4;"/>
   </g>
   <g id="patch_208">
    <path clip-path="url(#pc28a72e956)" d="M 478.194545 576.72 
L 480.020727 576.72 
L 480.020727 569.024858 
L 478.194545 569.024858 
z
" style="fill:#1f77b4;"/>
   </g>
   <g id="patch_209">
    <path clip-path="url(#pc28a72e956)" d="M 480.020727 576.72 
L 481.846909 576.72 
L 481.846909 567.925552 
L 480.020727 567.925552 
z
" style="fill:#1f77b4;"/>
   </g>
   <g id="patch_210">
    <path clip-path="url(#pc28a72e956)" d="M 481.846909 576.72 
L 483.673091 576.72 
L 483.673091 567.625741 
L 481.846909 567.625741 
z
" style="fill:#1f77b4;"/>
   </g>
   <g id="patch_211">
    <path clip-path="url(#pc28a72e956)" d="M 483.673091 576.72 
L 485.499273 576.72 
L 485.499273 568.858297 
L 483.673091 568.858297 
z
" style="fill:#1f77b4;"/>
   </g>
   <g id="patch_212">
    <path clip-path="url(#pc28a72e956)" d="M 485.499273 576.72 
L 487.325455 576.72 
L 487.325455 569.890978 
L 485.499273 569.890978 
z
" style="fill:#1f77b4;"/>
   </g>
   <g id="patch_213">
    <path clip-path="url(#pc28a72e956)" d="M 487.325455 576.72 
L 489.151636 576.72 
L 489.151636 566.659685 
L 487.325455 566.659685 
z
" style="fill:#1f77b4;"/>
   </g>
   <g id="patch_214">
    <path clip-path="url(#pc28a72e956)" d="M 489.151636 576.72 
L 490.977818 576.72 
L 490.977818 564.12795 
L 489.151636 564.12795 
z
" style="fill:#1f77b4;"/>
   </g>
   <g id="patch_215">
    <path clip-path="url(#pc28a72e956)" d="M 490.977818 576.72 
L 492.804 576.72 
L 492.804 549.803659 
L 490.977818 549.803659 
z
" style="fill:#1f77b4;"/>
   </g>
   <g id="patch_216">
    <path clip-path="url(#pc28a72e956)" d="M 492.804 576.72 
L 494.630182 576.72 
L 494.630182 535.312808 
L 492.804 535.312808 
z
" style="fill:#1f77b4;"/>
   </g>
   <g id="patch_217">
    <path clip-path="url(#pc28a72e956)" d="M 494.630182 576.72 
L 496.456364 576.72 
L 496.456364 551.40265 
L 494.630182 551.40265 
z
" style="fill:#1f77b4;"/>
   </g>
   <g id="patch_218">
    <path clip-path="url(#pc28a72e956)" d="M 496.456364 576.72 
L 498.282545 576.72 
L 498.282545 566.959495 
L 496.456364 566.959495 
z
" style="fill:#1f77b4;"/>
   </g>
   <g id="patch_219">
    <path clip-path="url(#pc28a72e956)" d="M 498.282545 576.72 
L 500.108727 576.72 
L 500.108727 569.357981 
L 498.282545 569.357981 
z
" style="fill:#1f77b4;"/>
   </g>
   <g id="patch_220">
    <path clip-path="url(#pc28a72e956)" d="M 500.108727 576.72 
L 501.934909 576.72 
L 501.934909 563.961388 
L 500.108727 563.961388 
z
" style="fill:#1f77b4;"/>
   </g>
   <g id="patch_221">
    <path clip-path="url(#pc28a72e956)" d="M 501.934909 576.72 
L 503.761091 576.72 
L 503.761091 562.695521 
L 501.934909 562.695521 
z
" style="fill:#1f77b4;"/>
   </g>
   <g id="patch_222">
    <path clip-path="url(#pc28a72e956)" d="M 503.761091 576.72 
L 505.587273 576.72 
L 505.587273 561.52959 
L 503.761091 561.52959 
z
" style="fill:#1f77b4;"/>
   </g>
   <g id="patch_223">
    <path clip-path="url(#pc28a72e956)" d="M 505.587273 576.72 
L 507.413455 576.72 
L 507.413455 568.092114 
L 505.587273 568.092114 
z
" style="fill:#1f77b4;"/>
   </g>
   <g id="patch_224">
    <path clip-path="url(#pc28a72e956)" d="M 507.413455 576.72 
L 509.239636 576.72 
L 509.239636 565.327192 
L 507.413455 565.327192 
z
" style="fill:#1f77b4;"/>
   </g>
   <g id="patch_225">
    <path clip-path="url(#pc28a72e956)" d="M 509.239636 576.72 
L 511.065818 576.72 
L 511.065818 567.525804 
L 509.239636 567.525804 
z
" style="fill:#1f77b4;"/>
   </g>
   <g id="patch_226">
    <path clip-path="url(#pc28a72e956)" d="M 511.065818 576.72 
L 512.892 576.72 
L 512.892 570.857035 
L 511.065818 570.857035 
z
" style="fill:#1f77b4;"/>
   </g>
   <g id="patch_227">
    <path clip-path="url(#pc28a72e956)" d="M 512.892 576.72 
L 514.718182 576.72 
L 514.718182 561.596215 
L 512.892 561.596215 
z
" style="fill:#1f77b4;"/>
   </g>
   <g id="patch_228">
    <path clip-path="url(#pc28a72e956)" d="M 514.718182 576.72 
L 516.544364 576.72 
L 516.544364 546.505741 
L 514.718182 546.505741 
z
" style="fill:#1f77b4;"/>
   </g>
   <g id="patch_229">
    <path clip-path="url(#pc28a72e956)" d="M 516.544364 576.72 
L 518.370545 576.72 
L 518.370545 538.377539 
L 516.544364 538.377539 
z
" style="fill:#1f77b4;"/>
   </g>
   <g id="patch_230">
    <path clip-path="url(#pc28a72e956)" d="M 518.370545 576.72 
L 520.196727 576.72 
L 520.196727 538.111041 
L 518.370545 538.111041 
z
" style="fill:#1f77b4;"/>
   </g>
   <g id="patch_231">
    <path clip-path="url(#pc28a72e956)" d="M 520.196727 576.72 
L 522.022909 576.72 
L 522.022909 552.435331 
L 520.196727 552.435331 
z
" style="fill:#1f77b4;"/>
   </g>
   <g id="patch_232">
    <path clip-path="url(#pc28a72e956)" d="M 522.022909 576.72 
L 523.849091 576.72 
L 523.849091 544.60694 
L 522.022909 544.60694 
z
" style="fill:#1f77b4;"/>
   </g>
   <g id="patch_233">
    <path clip-path="url(#pc28a72e956)" d="M 523.849091 576.72 
L 525.675273 576.72 
L 525.675273 552.868391 
L 523.849091 552.868391 
z
" style="fill:#1f77b4;"/>
   </g>
   <g id="patch_234">
    <path clip-path="url(#pc28a72e956)" d="M 525.675273 576.72 
L 527.501455 576.72 
L 527.501455 562.262461 
L 525.675273 562.262461 
z
" style="fill:#1f77b4;"/>
   </g>
   <g id="patch_235">
    <path clip-path="url(#pc28a72e956)" d="M 527.501455 576.72 
L 529.327636 576.72 
L 529.327636 547.2053 
L 527.501455 547.2053 
z
" style="fill:#1f77b4;"/>
   </g>
   <g id="patch_236">
    <path clip-path="url(#pc28a72e956)" d="M 529.327636 576.72 
L 531.153818 576.72 
L 531.153818 554.967066 
L 529.327636 554.967066 
z
" style="fill:#1f77b4;"/>
   </g>
   <g id="patch_237">
    <path clip-path="url(#pc28a72e956)" d="M 531.153818 576.72 
L 532.98 576.72 
L 532.98 559.064479 
L 531.153818 559.064479 
z
" style="fill:#1f77b4;"/>
   </g>
   <g id="patch_238">
    <path clip-path="url(#pc28a72e956)" d="M 532.98 576.72 
L 534.806182 576.72 
L 534.806182 552.468644 
L 532.98 552.468644 
z
" style="fill:#1f77b4;"/>
   </g>
   <g id="patch_239">
    <path clip-path="url(#pc28a72e956)" d="M 534.806182 576.72 
L 536.632364 576.72 
L 536.632364 565.060694 
L 534.806182 565.060694 
z
" style="fill:#1f77b4;"/>
   </g>
   <g id="patch_240">
    <path clip-path="url(#pc28a72e956)" d="M 536.632364 576.72 
L 538.458545 576.72 
L 538.458545 571.856404 
L 536.632364 571.856404 
z
" style="fill:#1f77b4;"/>
   </g>
   <g id="patch_241">
    <path clip-path="url(#pc28a72e956)" d="M 538.458545 576.72 
L 540.284727 576.72 
L 540.284727 560.197098 
L 538.458545 560.197098 
z
" style="fill:#1f77b4;"/>
   </g>
   <g id="patch_242">
    <path clip-path="url(#pc28a72e956)" d="M 540.284727 576.72 
L 542.110909 576.72 
L 542.110909 567.325931 
L 540.284727 567.325931 
z
" style="fill:#1f77b4;"/>
   </g>
   <g id="patch_243">
    <path clip-path="url(#pc28a72e956)" d="M 542.110909 576.72 
L 543.937091 576.72 
L 543.937091 568.924921 
L 542.110909 568.924921 
z
" style="fill:#1f77b4;"/>
   </g>
   <g id="patch_244">
    <path clip-path="url(#pc28a72e956)" d="M 543.937091 576.72 
L 545.763273 576.72 
L 545.763273 555.000379 
L 543.937091 555.000379 
z
" style="fill:#1f77b4;"/>
   </g>
   <g id="patch_245">
    <path clip-path="url(#pc28a72e956)" d="M 545.763273 576.72 
L 547.589455 576.72 
L 547.589455 567.325931 
L 545.763273 567.325931 
z
" style="fill:#1f77b4;"/>
   </g>
   <g id="patch_246">
    <path clip-path="url(#pc28a72e956)" d="M 547.589455 576.72 
L 549.415636 576.72 
L 549.415636 570.723785 
L 547.589455 570.723785 
z
" style="fill:#1f77b4;"/>
   </g>
   <g id="patch_247">
    <path clip-path="url(#pc28a72e956)" d="M 549.415636 576.72 
L 551.241818 576.72 
L 551.241818 570.290726 
L 549.415636 570.290726 
z
" style="fill:#1f77b4;"/>
   </g>
   <g id="patch_248">
    <path clip-path="url(#pc28a72e956)" d="M 551.241818 576.72 
L 553.068 576.72 
L 553.068 574.721262 
L 551.241818 574.721262 
z
" style="fill:#1f77b4;"/>
   </g>
   <g id="patch_249">
    <path clip-path="url(#pc28a72e956)" d="M 553.068 576.72 
L 554.894182 576.72 
L 554.894182 576.28694 
L 553.068 576.28694 
z
" style="fill:#1f77b4;"/>
   </g>
   <g id="patch_250">
    <path clip-path="url(#pc28a72e956)" d="M 554.894182 576.72 
L 556.720364 576.72 
L 556.720364 576.553438 
L 554.894182 576.553438 
z
" style="fill:#1f77b4;"/>
   </g>
   <g id="patch_251">
    <path clip-path="url(#pc28a72e956)" d="M 556.720364 576.72 
L 558.546545 576.72 
L 558.546545 576.653375 
L 556.720364 576.653375 
z
" style="fill:#1f77b4;"/>
   </g>
   <g id="patch_252">
    <path clip-path="url(#pc28a72e956)" d="M 558.546545 576.72 
L 560.372727 576.72 
L 560.372727 576.686688 
L 558.546545 576.686688 
z
" style="fill:#1f77b4;"/>
   </g>
   <g id="matplotlib.axis_1">
    <g id="xtick_1">
     <g id="line2d_1">
      <defs>
       <path d="M 0 0 
L 0 3.5 
" id="m4226819470" style="stroke:#000000;stroke-width:0.8;"/>
      </defs>
      <g>
       <use style="stroke:#000000;stroke-width:0.8;" x="104.740364" xlink:href="#m4226819470" y="576.72"/>
      </g>
     </g>
     <g id="text_1">
      <!-- 0 -->
      <defs>
       <path d="M 31.78125 66.40625 
Q 24.171875 66.40625 20.328125 58.90625 
Q 16.5 51.421875 16.5 36.375 
Q 16.5 21.390625 20.328125 13.890625 
Q 24.171875 6.390625 31.78125 6.390625 
Q 39.453125 6.390625 43.28125 13.890625 
Q 47.125 21.390625 47.125 36.375 
Q 47.125 51.421875 43.28125 58.90625 
Q 39.453125 66.40625 31.78125 66.40625 
z
M 31.78125 74.21875 
Q 44.046875 74.21875 50.515625 64.515625 
Q 56.984375 54.828125 56.984375 36.375 
Q 56.984375 17.96875 50.515625 8.265625 
Q 44.046875 -1.421875 31.78125 -1.421875 
Q 19.53125 -1.421875 13.0625 8.265625 
Q 6.59375 17.96875 6.59375 36.375 
Q 6.59375 54.828125 13.0625 64.515625 
Q 19.53125 74.21875 31.78125 74.21875 
z
" id="DejaVuSans-48"/>
      </defs>
      <g transform="translate(101.559114 591.318438)scale(0.1 -0.1)">
       <use xlink:href="#DejaVuSans-48"/>
      </g>
     </g>
    </g>
    <g id="xtick_2">
     <g id="line2d_2">
      <g>
       <use style="stroke:#000000;stroke-width:0.8;" x="196.049455" xlink:href="#m4226819470" y="576.72"/>
      </g>
     </g>
     <g id="text_2">
      <!-- 50 -->
      <defs>
       <path d="M 10.796875 72.90625 
L 49.515625 72.90625 
L 49.515625 64.59375 
L 19.828125 64.59375 
L 19.828125 46.734375 
Q 21.96875 47.46875 24.109375 47.828125 
Q 26.265625 48.1875 28.421875 48.1875 
Q 40.625 48.1875 47.75 41.5 
Q 54.890625 34.8125 54.890625 23.390625 
Q 54.890625 11.625 47.5625 5.09375 
Q 40.234375 -1.421875 26.90625 -1.421875 
Q 22.3125 -1.421875 17.546875 -0.640625 
Q 12.796875 0.140625 7.71875 1.703125 
L 7.71875 11.625 
Q 12.109375 9.234375 16.796875 8.0625 
Q 21.484375 6.890625 26.703125 6.890625 
Q 35.15625 6.890625 40.078125 11.328125 
Q 45.015625 15.765625 45.015625 23.390625 
Q 45.015625 31 40.078125 35.4375 
Q 35.15625 39.890625 26.703125 39.890625 
Q 22.75 39.890625 18.8125 39.015625 
Q 14.890625 38.140625 10.796875 36.28125 
z
" id="DejaVuSans-53"/>
      </defs>
      <g transform="translate(189.686955 591.318438)scale(0.1 -0.1)">
       <use xlink:href="#DejaVuSans-53"/>
       <use x="63.623047" xlink:href="#DejaVuSans-48"/>
      </g>
     </g>
    </g>
    <g id="xtick_3">
     <g id="line2d_3">
      <g>
       <use style="stroke:#000000;stroke-width:0.8;" x="287.358545" xlink:href="#m4226819470" y="576.72"/>
      </g>
     </g>
     <g id="text_3">
      <!-- 100 -->
      <defs>
       <path d="M 12.40625 8.296875 
L 28.515625 8.296875 
L 28.515625 63.921875 
L 10.984375 60.40625 
L 10.984375 69.390625 
L 28.421875 72.90625 
L 38.28125 72.90625 
L 38.28125 8.296875 
L 54.390625 8.296875 
L 54.390625 0 
L 12.40625 0 
z
" id="DejaVuSans-49"/>
      </defs>
      <g transform="translate(277.814795 591.318438)scale(0.1 -0.1)">
       <use xlink:href="#DejaVuSans-49"/>
       <use x="63.623047" xlink:href="#DejaVuSans-48"/>
       <use x="127.246094" xlink:href="#DejaVuSans-48"/>
      </g>
     </g>
    </g>
    <g id="xtick_4">
     <g id="line2d_4">
      <g>
       <use style="stroke:#000000;stroke-width:0.8;" x="378.667636" xlink:href="#m4226819470" y="576.72"/>
      </g>
     </g>
     <g id="text_4">
      <!-- 150 -->
      <g transform="translate(369.123886 591.318438)scale(0.1 -0.1)">
       <use xlink:href="#DejaVuSans-49"/>
       <use x="63.623047" xlink:href="#DejaVuSans-53"/>
       <use x="127.246094" xlink:href="#DejaVuSans-48"/>
      </g>
     </g>
    </g>
    <g id="xtick_5">
     <g id="line2d_5">
      <g>
       <use style="stroke:#000000;stroke-width:0.8;" x="469.976727" xlink:href="#m4226819470" y="576.72"/>
      </g>
     </g>
     <g id="text_5">
      <!-- 200 -->
      <defs>
       <path d="M 19.1875 8.296875 
L 53.609375 8.296875 
L 53.609375 0 
L 7.328125 0 
L 7.328125 8.296875 
Q 12.9375 14.109375 22.625 23.890625 
Q 32.328125 33.6875 34.8125 36.53125 
Q 39.546875 41.84375 41.421875 45.53125 
Q 43.3125 49.21875 43.3125 52.78125 
Q 43.3125 58.59375 39.234375 62.25 
Q 35.15625 65.921875 28.609375 65.921875 
Q 23.96875 65.921875 18.8125 64.3125 
Q 13.671875 62.703125 7.8125 59.421875 
L 7.8125 69.390625 
Q 13.765625 71.78125 18.9375 73 
Q 24.125 74.21875 28.421875 74.21875 
Q 39.75 74.21875 46.484375 68.546875 
Q 53.21875 62.890625 53.21875 53.421875 
Q 53.21875 48.921875 51.53125 44.890625 
Q 49.859375 40.875 45.40625 35.40625 
Q 44.1875 33.984375 37.640625 27.21875 
Q 31.109375 20.453125 19.1875 8.296875 
z
" id="DejaVuSans-50"/>
      </defs>
      <g transform="translate(460.432977 591.318438)scale(0.1 -0.1)">
       <use xlink:href="#DejaVuSans-50"/>
       <use x="63.623047" xlink:href="#DejaVuSans-48"/>
       <use x="127.246094" xlink:href="#DejaVuSans-48"/>
      </g>
     </g>
    </g>
    <g id="xtick_6">
     <g id="line2d_6">
      <g>
       <use style="stroke:#000000;stroke-width:0.8;" x="561.285818" xlink:href="#m4226819470" y="576.72"/>
      </g>
     </g>
     <g id="text_6">
      <!-- 250 -->
      <g transform="translate(551.742068 591.318438)scale(0.1 -0.1)">
       <use xlink:href="#DejaVuSans-50"/>
       <use x="63.623047" xlink:href="#DejaVuSans-53"/>
       <use x="127.246094" xlink:href="#DejaVuSans-48"/>
      </g>
     </g>
    </g>
    <g id="text_7">
     <!-- distance -->
     <defs>
      <path d="M 45.40625 46.390625 
L 45.40625 75.984375 
L 54.390625 75.984375 
L 54.390625 0 
L 45.40625 0 
L 45.40625 8.203125 
Q 42.578125 3.328125 38.25 0.953125 
Q 33.9375 -1.421875 27.875 -1.421875 
Q 17.96875 -1.421875 11.734375 6.484375 
Q 5.515625 14.40625 5.515625 27.296875 
Q 5.515625 40.1875 11.734375 48.09375 
Q 17.96875 56 27.875 56 
Q 33.9375 56 38.25 53.625 
Q 42.578125 51.265625 45.40625 46.390625 
z
M 14.796875 27.296875 
Q 14.796875 17.390625 18.875 11.75 
Q 22.953125 6.109375 30.078125 6.109375 
Q 37.203125 6.109375 41.296875 11.75 
Q 45.40625 17.390625 45.40625 27.296875 
Q 45.40625 37.203125 41.296875 42.84375 
Q 37.203125 48.484375 30.078125 48.484375 
Q 22.953125 48.484375 18.875 42.84375 
Q 14.796875 37.203125 14.796875 27.296875 
z
" id="DejaVuSans-100"/>
      <path d="M 9.421875 54.6875 
L 18.40625 54.6875 
L 18.40625 0 
L 9.421875 0 
z
M 9.421875 75.984375 
L 18.40625 75.984375 
L 18.40625 64.59375 
L 9.421875 64.59375 
z
" id="DejaVuSans-105"/>
      <path d="M 44.28125 53.078125 
L 44.28125 44.578125 
Q 40.484375 46.53125 36.375 47.5 
Q 32.28125 48.484375 27.875 48.484375 
Q 21.1875 48.484375 17.84375 46.4375 
Q 14.5 44.390625 14.5 40.28125 
Q 14.5 37.15625 16.890625 35.375 
Q 19.28125 33.59375 26.515625 31.984375 
L 29.59375 31.296875 
Q 39.15625 29.25 43.1875 25.515625 
Q 47.21875 21.78125 47.21875 15.09375 
Q 47.21875 7.46875 41.1875 3.015625 
Q 35.15625 -1.421875 24.609375 -1.421875 
Q 20.21875 -1.421875 15.453125 -0.5625 
Q 10.6875 0.296875 5.421875 2 
L 5.421875 11.28125 
Q 10.40625 8.6875 15.234375 7.390625 
Q 20.0625 6.109375 24.8125 6.109375 
Q 31.15625 6.109375 34.5625 8.28125 
Q 37.984375 10.453125 37.984375 14.40625 
Q 37.984375 18.0625 35.515625 20.015625 
Q 33.0625 21.96875 24.703125 23.78125 
L 21.578125 24.515625 
Q 13.234375 26.265625 9.515625 29.90625 
Q 5.8125 33.546875 5.8125 39.890625 
Q 5.8125 47.609375 11.28125 51.796875 
Q 16.75 56 26.8125 56 
Q 31.78125 56 36.171875 55.265625 
Q 40.578125 54.546875 44.28125 53.078125 
z
" id="DejaVuSans-115"/>
      <path d="M 18.3125 70.21875 
L 18.3125 54.6875 
L 36.8125 54.6875 
L 36.8125 47.703125 
L 18.3125 47.703125 
L 18.3125 18.015625 
Q 18.3125 11.328125 20.140625 9.421875 
Q 21.96875 7.515625 27.59375 7.515625 
L 36.8125 7.515625 
L 36.8125 0 
L 27.59375 0 
Q 17.1875 0 13.234375 3.875 
Q 9.28125 7.765625 9.28125 18.015625 
L 9.28125 47.703125 
L 2.6875 47.703125 
L 2.6875 54.6875 
L 9.28125 54.6875 
L 9.28125 70.21875 
z
" id="DejaVuSans-116"/>
      <path d="M 34.28125 27.484375 
Q 23.390625 27.484375 19.1875 25 
Q 14.984375 22.515625 14.984375 16.5 
Q 14.984375 11.71875 18.140625 8.90625 
Q 21.296875 6.109375 26.703125 6.109375 
Q 34.1875 6.109375 38.703125 11.40625 
Q 43.21875 16.703125 43.21875 25.484375 
L 43.21875 27.484375 
z
M 52.203125 31.203125 
L 52.203125 0 
L 43.21875 0 
L 43.21875 8.296875 
Q 40.140625 3.328125 35.546875 0.953125 
Q 30.953125 -1.421875 24.3125 -1.421875 
Q 15.921875 -1.421875 10.953125 3.296875 
Q 6 8.015625 6 15.921875 
Q 6 25.140625 12.171875 29.828125 
Q 18.359375 34.515625 30.609375 34.515625 
L 43.21875 34.515625 
L 43.21875 35.40625 
Q 43.21875 41.609375 39.140625 45 
Q 35.0625 48.390625 27.6875 48.390625 
Q 23 48.390625 18.546875 47.265625 
Q 14.109375 46.140625 10.015625 43.890625 
L 10.015625 52.203125 
Q 14.9375 54.109375 19.578125 55.046875 
Q 24.21875 56 28.609375 56 
Q 40.484375 56 46.34375 49.84375 
Q 52.203125 43.703125 52.203125 31.203125 
z
" id="DejaVuSans-97"/>
      <path d="M 54.890625 33.015625 
L 54.890625 0 
L 45.90625 0 
L 45.90625 32.71875 
Q 45.90625 40.484375 42.875 44.328125 
Q 39.84375 48.1875 33.796875 48.1875 
Q 26.515625 48.1875 22.3125 43.546875 
Q 18.109375 38.921875 18.109375 30.90625 
L 18.109375 0 
L 9.078125 0 
L 9.078125 54.6875 
L 18.109375 54.6875 
L 18.109375 46.1875 
Q 21.34375 51.125 25.703125 53.5625 
Q 30.078125 56 35.796875 56 
Q 45.21875 56 50.046875 50.171875 
Q 54.890625 44.34375 54.890625 33.015625 
z
" id="DejaVuSans-110"/>
      <path d="M 48.78125 52.59375 
L 48.78125 44.1875 
Q 44.96875 46.296875 41.140625 47.34375 
Q 37.3125 48.390625 33.40625 48.390625 
Q 24.65625 48.390625 19.8125 42.84375 
Q 14.984375 37.3125 14.984375 27.296875 
Q 14.984375 17.28125 19.8125 11.734375 
Q 24.65625 6.203125 33.40625 6.203125 
Q 37.3125 6.203125 41.140625 7.25 
Q 44.96875 8.296875 48.78125 10.40625 
L 48.78125 2.09375 
Q 45.015625 0.34375 40.984375 -0.53125 
Q 36.96875 -1.421875 32.421875 -1.421875 
Q 20.0625 -1.421875 12.78125 6.34375 
Q 5.515625 14.109375 5.515625 27.296875 
Q 5.515625 40.671875 12.859375 48.328125 
Q 20.21875 56 33.015625 56 
Q 37.15625 56 41.109375 55.140625 
Q 45.0625 54.296875 48.78125 52.59375 
z
" id="DejaVuSans-99"/>
      <path d="M 56.203125 29.59375 
L 56.203125 25.203125 
L 14.890625 25.203125 
Q 15.484375 15.921875 20.484375 11.0625 
Q 25.484375 6.203125 34.421875 6.203125 
Q 39.59375 6.203125 44.453125 7.46875 
Q 49.3125 8.734375 54.109375 11.28125 
L 54.109375 2.78125 
Q 49.265625 0.734375 44.1875 -0.34375 
Q 39.109375 -1.421875 33.890625 -1.421875 
Q 20.796875 -1.421875 13.15625 6.1875 
Q 5.515625 13.8125 5.515625 26.8125 
Q 5.515625 40.234375 12.765625 48.109375 
Q 20.015625 56 32.328125 56 
Q 43.359375 56 49.78125 48.890625 
Q 56.203125 41.796875 56.203125 29.59375 
z
M 47.21875 32.234375 
Q 47.125 39.59375 43.09375 43.984375 
Q 39.0625 48.390625 32.421875 48.390625 
Q 24.90625 48.390625 20.390625 44.140625 
Q 15.875 39.890625 15.1875 32.171875 
z
" id="DejaVuSans-101"/>
     </defs>
     <g transform="translate(310.913281 604.996562)scale(0.1 -0.1)">
      <use xlink:href="#DejaVuSans-100"/>
      <use x="63.476562" xlink:href="#DejaVuSans-105"/>
      <use x="91.259766" xlink:href="#DejaVuSans-115"/>
      <use x="143.359375" xlink:href="#DejaVuSans-116"/>
      <use x="182.568359" xlink:href="#DejaVuSans-97"/>
      <use x="243.847656" xlink:href="#DejaVuSans-110"/>
      <use x="307.226562" xlink:href="#DejaVuSans-99"/>
      <use x="362.207031" xlink:href="#DejaVuSans-101"/>
     </g>
    </g>
   </g>
   <g id="matplotlib.axis_2">
    <g id="ytick_1">
     <g id="line2d_7">
      <defs>
       <path d="M 0 0 
L -3.5 0 
" id="mc36e09ff7c" style="stroke:#000000;stroke-width:0.8;"/>
      </defs>
      <g>
       <use style="stroke:#000000;stroke-width:0.8;" x="81" xlink:href="#mc36e09ff7c" y="576.72"/>
      </g>
     </g>
     <g id="text_8">
      <!-- 0 -->
      <g transform="translate(67.6375 580.519219)scale(0.1 -0.1)">
       <use xlink:href="#DejaVuSans-48"/>
      </g>
     </g>
    </g>
    <g id="ytick_2">
     <g id="line2d_8">
      <g>
       <use style="stroke:#000000;stroke-width:0.8;" x="81" xlink:href="#mc36e09ff7c" y="493.439243"/>
      </g>
     </g>
     <g id="text_9">
      <!-- 5000 -->
      <g transform="translate(48.55 497.238462)scale(0.1 -0.1)">
       <use xlink:href="#DejaVuSans-53"/>
       <use x="63.623047" xlink:href="#DejaVuSans-48"/>
       <use x="127.246094" xlink:href="#DejaVuSans-48"/>
       <use x="190.869141" xlink:href="#DejaVuSans-48"/>
      </g>
     </g>
    </g>
    <g id="ytick_3">
     <g id="line2d_9">
      <g>
       <use style="stroke:#000000;stroke-width:0.8;" x="81" xlink:href="#mc36e09ff7c" y="410.158486"/>
      </g>
     </g>
     <g id="text_10">
      <!-- 10000 -->
      <g transform="translate(42.1875 413.957705)scale(0.1 -0.1)">
       <use xlink:href="#DejaVuSans-49"/>
       <use x="63.623047" xlink:href="#DejaVuSans-48"/>
       <use x="127.246094" xlink:href="#DejaVuSans-48"/>
       <use x="190.869141" xlink:href="#DejaVuSans-48"/>
       <use x="254.492188" xlink:href="#DejaVuSans-48"/>
      </g>
     </g>
    </g>
    <g id="ytick_4">
     <g id="line2d_10">
      <g>
       <use style="stroke:#000000;stroke-width:0.8;" x="81" xlink:href="#mc36e09ff7c" y="326.877729"/>
      </g>
     </g>
     <g id="text_11">
      <!-- 15000 -->
      <g transform="translate(42.1875 330.676947)scale(0.1 -0.1)">
       <use xlink:href="#DejaVuSans-49"/>
       <use x="63.623047" xlink:href="#DejaVuSans-53"/>
       <use x="127.246094" xlink:href="#DejaVuSans-48"/>
       <use x="190.869141" xlink:href="#DejaVuSans-48"/>
       <use x="254.492188" xlink:href="#DejaVuSans-48"/>
      </g>
     </g>
    </g>
    <g id="ytick_5">
     <g id="line2d_11">
      <g>
       <use style="stroke:#000000;stroke-width:0.8;" x="81" xlink:href="#mc36e09ff7c" y="243.596972"/>
      </g>
     </g>
     <g id="text_12">
      <!-- 20000 -->
      <g transform="translate(42.1875 247.39619)scale(0.1 -0.1)">
       <use xlink:href="#DejaVuSans-50"/>
       <use x="63.623047" xlink:href="#DejaVuSans-48"/>
       <use x="127.246094" xlink:href="#DejaVuSans-48"/>
       <use x="190.869141" xlink:href="#DejaVuSans-48"/>
       <use x="254.492188" xlink:href="#DejaVuSans-48"/>
      </g>
     </g>
    </g>
    <g id="ytick_6">
     <g id="line2d_12">
      <g>
       <use style="stroke:#000000;stroke-width:0.8;" x="81" xlink:href="#mc36e09ff7c" y="160.316215"/>
      </g>
     </g>
     <g id="text_13">
      <!-- 25000 -->
      <g transform="translate(42.1875 164.115433)scale(0.1 -0.1)">
       <use xlink:href="#DejaVuSans-50"/>
       <use x="63.623047" xlink:href="#DejaVuSans-53"/>
       <use x="127.246094" xlink:href="#DejaVuSans-48"/>
       <use x="190.869141" xlink:href="#DejaVuSans-48"/>
       <use x="254.492188" xlink:href="#DejaVuSans-48"/>
      </g>
     </g>
    </g>
    <g id="text_14">
     <!-- frequency -->
     <defs>
      <path d="M 37.109375 75.984375 
L 37.109375 68.5 
L 28.515625 68.5 
Q 23.6875 68.5 21.796875 66.546875 
Q 19.921875 64.59375 19.921875 59.515625 
L 19.921875 54.6875 
L 34.71875 54.6875 
L 34.71875 47.703125 
L 19.921875 47.703125 
L 19.921875 0 
L 10.890625 0 
L 10.890625 47.703125 
L 2.296875 47.703125 
L 2.296875 54.6875 
L 10.890625 54.6875 
L 10.890625 58.5 
Q 10.890625 67.625 15.140625 71.796875 
Q 19.390625 75.984375 28.609375 75.984375 
z
" id="DejaVuSans-102"/>
      <path d="M 41.109375 46.296875 
Q 39.59375 47.171875 37.8125 47.578125 
Q 36.03125 48 33.890625 48 
Q 26.265625 48 22.1875 43.046875 
Q 18.109375 38.09375 18.109375 28.8125 
L 18.109375 0 
L 9.078125 0 
L 9.078125 54.6875 
L 18.109375 54.6875 
L 18.109375 46.1875 
Q 20.953125 51.171875 25.484375 53.578125 
Q 30.03125 56 36.53125 56 
Q 37.453125 56 38.578125 55.875 
Q 39.703125 55.765625 41.0625 55.515625 
z
" id="DejaVuSans-114"/>
      <path d="M 14.796875 27.296875 
Q 14.796875 17.390625 18.875 11.75 
Q 22.953125 6.109375 30.078125 6.109375 
Q 37.203125 6.109375 41.296875 11.75 
Q 45.40625 17.390625 45.40625 27.296875 
Q 45.40625 37.203125 41.296875 42.84375 
Q 37.203125 48.484375 30.078125 48.484375 
Q 22.953125 48.484375 18.875 42.84375 
Q 14.796875 37.203125 14.796875 27.296875 
z
M 45.40625 8.203125 
Q 42.578125 3.328125 38.25 0.953125 
Q 33.9375 -1.421875 27.875 -1.421875 
Q 17.96875 -1.421875 11.734375 6.484375 
Q 5.515625 14.40625 5.515625 27.296875 
Q 5.515625 40.1875 11.734375 48.09375 
Q 17.96875 56 27.875 56 
Q 33.9375 56 38.25 53.625 
Q 42.578125 51.265625 45.40625 46.390625 
L 45.40625 54.6875 
L 54.390625 54.6875 
L 54.390625 -20.796875 
L 45.40625 -20.796875 
z
" id="DejaVuSans-113"/>
      <path d="M 8.5 21.578125 
L 8.5 54.6875 
L 17.484375 54.6875 
L 17.484375 21.921875 
Q 17.484375 14.15625 20.5 10.265625 
Q 23.53125 6.390625 29.59375 6.390625 
Q 36.859375 6.390625 41.078125 11.03125 
Q 45.3125 15.671875 45.3125 23.6875 
L 45.3125 54.6875 
L 54.296875 54.6875 
L 54.296875 0 
L 45.3125 0 
L 45.3125 8.40625 
Q 42.046875 3.421875 37.71875 1 
Q 33.40625 -1.421875 27.6875 -1.421875 
Q 18.265625 -1.421875 13.375 4.4375 
Q 8.5 10.296875 8.5 21.578125 
z
M 31.109375 56 
z
" id="DejaVuSans-117"/>
      <path d="M 32.171875 -5.078125 
Q 28.375 -14.84375 24.75 -17.8125 
Q 21.140625 -20.796875 15.09375 -20.796875 
L 7.90625 -20.796875 
L 7.90625 -13.28125 
L 13.1875 -13.28125 
Q 16.890625 -13.28125 18.9375 -11.515625 
Q 21 -9.765625 23.484375 -3.21875 
L 25.09375 0.875 
L 2.984375 54.6875 
L 12.5 54.6875 
L 29.59375 11.921875 
L 46.6875 54.6875 
L 56.203125 54.6875 
z
" id="DejaVuSans-121"/>
     </defs>
     <g transform="translate(36.107812 352.4275)rotate(-90)scale(0.1 -0.1)">
      <use xlink:href="#DejaVuSans-102"/>
      <use x="35.205078" xlink:href="#DejaVuSans-114"/>
      <use x="76.287109" xlink:href="#DejaVuSans-101"/>
      <use x="137.810547" xlink:href="#DejaVuSans-113"/>
      <use x="201.287109" xlink:href="#DejaVuSans-117"/>
      <use x="264.666016" xlink:href="#DejaVuSans-101"/>
      <use x="326.189453" xlink:href="#DejaVuSans-110"/>
      <use x="389.568359" xlink:href="#DejaVuSans-99"/>
      <use x="444.548828" xlink:href="#DejaVuSans-121"/>
     </g>
    </g>
   </g>
   <g id="patch_253">
    <path d="M 81 576.72 
L 81 77.76 
" style="fill:none;stroke:#000000;stroke-linecap:square;stroke-linejoin:miter;stroke-width:0.8;"/>
   </g>
   <g id="patch_254">
    <path d="M 583.2 576.72 
L 583.2 77.76 
" style="fill:none;stroke:#000000;stroke-linecap:square;stroke-linejoin:miter;stroke-width:0.8;"/>
   </g>
   <g id="patch_255">
    <path d="M 81 576.72 
L 583.2 576.72 
" style="fill:none;stroke:#000000;stroke-linecap:square;stroke-linejoin:miter;stroke-width:0.8;"/>
   </g>
   <g id="patch_256">
    <path d="M 81 77.76 
L 583.2 77.76 
" style="fill:none;stroke:#000000;stroke-linecap:square;stroke-linejoin:miter;stroke-width:0.8;"/>
   </g>
   <g id="text_15">
    <!-- distance distribution -->
    <defs>
     <path id="DejaVuSans-32"/>
     <path d="M 48.6875 27.296875 
Q 48.6875 37.203125 44.609375 42.84375 
Q 40.53125 48.484375 33.40625 48.484375 
Q 26.265625 48.484375 22.1875 42.84375 
Q 18.109375 37.203125 18.109375 27.296875 
Q 18.109375 17.390625 22.1875 11.75 
Q 26.265625 6.109375 33.40625 6.109375 
Q 40.53125 6.109375 44.609375 11.75 
Q 48.6875 17.390625 48.6875 27.296875 
z
M 18.109375 46.390625 
Q 20.953125 51.265625 25.265625 53.625 
Q 29.59375 56 35.59375 56 
Q 45.5625 56 51.78125 48.09375 
Q 58.015625 40.1875 58.015625 27.296875 
Q 58.015625 14.40625 51.78125 6.484375 
Q 45.5625 -1.421875 35.59375 -1.421875 
Q 29.59375 -1.421875 25.265625 0.953125 
Q 20.953125 3.328125 18.109375 8.203125 
L 18.109375 0 
L 9.078125 0 
L 9.078125 75.984375 
L 18.109375 75.984375 
z
" id="DejaVuSans-98"/>
     <path d="M 30.609375 48.390625 
Q 23.390625 48.390625 19.1875 42.75 
Q 14.984375 37.109375 14.984375 27.296875 
Q 14.984375 17.484375 19.15625 11.84375 
Q 23.34375 6.203125 30.609375 6.203125 
Q 37.796875 6.203125 41.984375 11.859375 
Q 46.1875 17.53125 46.1875 27.296875 
Q 46.1875 37.015625 41.984375 42.703125 
Q 37.796875 48.390625 30.609375 48.390625 
z
M 30.609375 56 
Q 42.328125 56 49.015625 48.375 
Q 55.71875 40.765625 55.71875 27.296875 
Q 55.71875 13.875 49.015625 6.21875 
Q 42.328125 -1.421875 30.609375 -1.421875 
Q 18.84375 -1.421875 12.171875 6.21875 
Q 5.515625 13.875 5.515625 27.296875 
Q 5.515625 40.765625 12.171875 48.375 
Q 18.84375 56 30.609375 56 
z
" id="DejaVuSans-111"/>
    </defs>
    <g transform="translate(270.5775 71.76)scale(0.12 -0.12)">
     <use xlink:href="#DejaVuSans-100"/>
     <use x="63.476562" xlink:href="#DejaVuSans-105"/>
     <use x="91.259766" xlink:href="#DejaVuSans-115"/>
     <use x="143.359375" xlink:href="#DejaVuSans-116"/>
     <use x="182.568359" xlink:href="#DejaVuSans-97"/>
     <use x="243.847656" xlink:href="#DejaVuSans-110"/>
     <use x="307.226562" xlink:href="#DejaVuSans-99"/>
     <use x="362.207031" xlink:href="#DejaVuSans-101"/>
     <use x="423.730469" xlink:href="#DejaVuSans-32"/>
     <use x="455.517578" xlink:href="#DejaVuSans-100"/>
     <use x="518.994141" xlink:href="#DejaVuSans-105"/>
     <use x="546.777344" xlink:href="#DejaVuSans-115"/>
     <use x="598.876953" xlink:href="#DejaVuSans-116"/>
     <use x="638.085938" xlink:href="#DejaVuSans-114"/>
     <use x="679.199219" xlink:href="#DejaVuSans-105"/>
     <use x="706.982422" xlink:href="#DejaVuSans-98"/>
     <use x="770.458984" xlink:href="#DejaVuSans-117"/>
     <use x="833.837891" xlink:href="#DejaVuSans-116"/>
     <use x="873.046875" xlink:href="#DejaVuSans-105"/>
     <use x="900.830078" xlink:href="#DejaVuSans-111"/>
     <use x="962.011719" xlink:href="#DejaVuSans-110"/>
    </g>
   </g>
  </g>
 </g>
 <defs>
  <clipPath id="pc28a72e956">
   <rect height="498.96" width="502.2" x="81" y="77.76"/>
  </clipPath>
 </defs>
</svg>
